<?xml version="1.0" encoding="UTF-8" standalone="no"?>
<!-- Created with Inkscape (http://www.inkscape.org/) -->

<svg
   width="720"
   height="1280"
   viewBox="0 0 190.50001 338.66666"
   version="1.1"
   id="svg5"
   sodipodi:docname="BackGroundLogin.svg"
   inkscape:version="1.1.1 (3bf5ae0d25, 2021-09-20)"
   xmlns:inkscape="http://www.inkscape.org/namespaces/inkscape"
   xmlns:sodipodi="http://sodipodi.sourceforge.net/DTD/sodipodi-0.dtd"
   xmlns="http://www.w3.org/2000/svg"
   xmlns:svg="http://www.w3.org/2000/svg">
  <sodipodi:namedview
     id="namedview7"
     pagecolor="#505050"
     bordercolor="#eeeeee"
     borderopacity="1"
     inkscape:pageshadow="0"
     inkscape:pageopacity="0"
     inkscape:pagecheckerboard="0"
     inkscape:document-units="mm"
     showgrid="false"
     inkscape:snap-global="false"
     inkscape:snap-bbox="false"
     inkscape:zoom="0.45254834"
     inkscape:cx="318.19805"
     inkscape:cy="521.49125"
     inkscape:window-width="1920"
     inkscape:window-height="986"
     inkscape:window-x="-11"
     inkscape:window-y="-11"
     inkscape:window-maximized="1"
     inkscape:current-layer="layer1"
     inkscape:bbox-paths="false"
     inkscape:snap-bbox-midpoints="true"
     inkscape:object-nodes="false"
     inkscape:snap-nodes="false"
     inkscape:bbox-nodes="false"
     inkscape:snap-bbox-edge-midpoints="false"
     inkscape:object-paths="false"
     inkscape:snap-intersection-paths="false"
     inkscape:snap-smooth-nodes="false"
     inkscape:snap-midpoints="false"
     inkscape:snap-others="false"
     inkscape:snap-object-midpoints="true"
     inkscape:snap-center="false"
     inkscape:snap-text-baseline="false"
     units="px" />
  <defs
     id="defs2" />
  <g
     inkscape:label="Layer 1"
     inkscape:groupmode="layer"
     id="layer1">
    <g
       id="g143391"
       transform="matrix(0.26389156,0,0,0.26458333,-0.01450052,0.29678559)">
      <path
         id="rect8211"
         style="fill:#b6ffff;fill-opacity:0.906934;stroke:#52bc7a;stroke-width:0"
         d="M -0.01969847,0.4035618 H 719.9803 V 1280.4036 H -0.01969847 Z" />
      <path
         id="rect2178"
         style="fill:#52bc7a;fill-opacity:1;stroke:#52bc7a;stroke-width:22.5239;stroke-miterlimit:4;stroke-dasharray:none;stroke-opacity:1"
         d="m 710.47627,866.74015 c -3.75702,0.6033 -7.52218,1.24155 -11.29921,1.92655 -4.00774,0.72687 -8.02685,1.49789 -12.05592,2.30814 -4.02908,0.81026 -8.06817,1.66011 -12.11727,2.54487 -4.04913,0.88479 -8.10812,1.80423 -12.176,2.75461 -4.06787,0.95041 -8.14467,1.93174 -12.23003,2.93893 -4.0854,1.00716 -8.17941,2.0406 -12.28099,3.09567 -4.10161,1.05505 -8.21071,2.1314 -12.32726,3.22548 -4.11653,1.09408 -8.24017,2.20562 -12.37038,3.32985 -8.26042,2.24844 -16.54709,4.54839 -24.85459,6.86419 -8.30746,2.31577 -16.63602,4.64756 -24.98034,6.95972 -8.34435,2.31213 -16.70448,4.60438 -25.07549,6.84187 -4.1855,1.11874 -8.37346,2.22382 -12.56372,3.31062 -4.19027,1.08676 -8.38296,2.15565 -12.57671,3.20159 -4.19376,1.04594 -8.38855,2.06884 -12.58451,3.06507 -4.19596,0.99621 -8.39281,1.96544 -12.58973,2.90307 -4.19689,0.93765 -8.39416,1.84394 -12.59074,2.71413 -4.19657,0.87016 -8.39267,1.70431 -12.58765,2.49814 -4.19495,0.79382 -8.38879,1.54709 -12.58086,2.2557 -4.19208,0.70863 -8.38203,1.37277 -12.56995,1.98731 -4.18793,0.61454 -8.37344,1.1798 -12.55594,1.6914 -4.18249,0.5116 -8.36247,0.96923 -12.53826,1.36899 -4.17578,0.39975 -8.34756,0.7416 -12.5154,1.02065 -2.08389,0.13951 -4.16663,0.26351 -6.24831,0.37119 -2.08169,0.10768 -4.16231,0.19885 -6.24159,0.2736 -2.0793,0.0747 -4.15757,0.13271 -6.2343,0.17338 -2.07674,0.0407 -4.15198,0.0641 -6.22599,0.0696 -2.07405,0.005 -4.14653,-0.007 -6.21769,-0.0374 -2.07115,-0.0307 -4.14123,-0.0798 -6.20935,-0.14794 -2.06813,-0.0681 -4.13454,-0.15553 -6.19949,-0.26216 -2.06494,-0.10665 -4.12802,-0.23274 -6.18961,-0.37899 -2.06159,-0.14625 -4.12164,-0.31247 -6.17971,-0.49942 -2.05811,-0.18697 -4.11441,-0.39471 -6.16884,-0.6235 -2.0544,-0.22878 -4.10679,-0.47847 -6.15739,-0.75018 -2.05058,-0.2717 -4.09931,-0.56523 -6.14595,-0.88101 -2.04662,-0.31575 -4.09152,-0.654 -6.13398,-1.01492 -2.04248,-0.36091 -4.08284,-0.74431 -6.12101,-1.15146 -1.91688,-0.38295 -3.82043,-0.81531 -5.71144,-1.29323 -1.891,-0.47789 -3.76903,-1.00133 -5.63556,-1.56782 -1.86654,-0.56648 -3.72136,-1.17565 -5.56488,-1.8243 -1.84351,-0.64863 -3.6759,-1.33715 -5.49784,-2.06155 -1.82194,-0.72437 -3.63365,-1.48479 -5.43546,-2.27853 -1.8018,-0.79375 -3.59363,-1.62071 -5.37672,-2.47738 -1.7831,-0.85668 -3.55738,-1.74328 -5.3232,-2.6565 -1.76583,-0.9132 -3.52332,-1.85304 -5.2733,-2.81639 -1.75,-0.96333 -3.49251,-1.94999 -5.22808,-2.95707 -1.73561,-1.00706 -3.46439,-2.03469 -5.18704,-3.07908 -3.44529,-2.08876 -6.86591,-4.24565 -10.26802,-6.44524 -3.40211,-2.19959 -6.78586,-4.44152 -10.15628,-6.70067 -3.37043,-2.25915 -6.72755,-4.53545 -10.0778,-6.80292 -3.35025,-2.26748 -6.6936,-4.52599 -10.03518,-6.75052 -3.34158,-2.22454 -6.68141,-4.41509 -10.02583,-6.54544 -1.6722,-1.06518 -3.34564,-2.11509 -5.0207,-3.14709 -1.67507,-1.03202 -3.35173,-2.04611 -5.0311,-3.03858 -1.67938,-0.99246 -3.36159,-1.96336 -5.0467,-2.90984 -1.68511,-0.94648 -3.37311,-1.86829 -5.06541,-2.7624 -1.69229,-0.89409 -3.38892,-1.76042 -5.08983,-2.59575 -1.70091,-0.83531 -3.4064,-1.63975 -5.11738,-2.40988 -1.71097,-0.77012 -3.42714,-1.50629 -5.14961,-2.20483 -1.72246,-0.69853 -3.45111,-1.35951 -5.1865,-1.98003 -1.73539,-0.62053 -3.4778,-1.20046 -5.22756,-1.73655 -1.74977,-0.53614 -3.5067,-1.0286 -5.27227,-1.47387 -1.76557,-0.4453 -3.53934,-0.8434 -5.32216,-1.19146 -1.78282,-0.34807 -3.5747,-0.64589 -5.37621,-0.89035 -1.52536,-0.20698 -3.05233,-0.38855 -4.58048,-0.54615 -1.52816,-0.15757 -3.05755,-0.29145 -4.58828,-0.40232 -1.53074,-0.1109 -3.06297,-0.19898 -4.59609,-0.2658 -1.5331,-0.0668 -3.06704,-0.11212 -4.60231,-0.13758 -1.53528,-0.0254 -3.07183,-0.0308 -4.60907,-0.0177 -1.53725,0.0132 -3.07527,0.0452 -4.61427,0.0945 -1.53901,0.0492 -3.07891,0.11574 -4.61948,0.19832 -1.54055,0.0826 -3.08171,0.18112 -4.62362,0.29438 -3.0838,0.22649 -6.17019,0.51154 -9.25816,0.84465 -3.087973,0.33311 -6.177547,0.71395 -9.268042,1.13227 -3.090492,0.4183 -6.181865,0.87389 -9.273236,1.35601 -3.091373,0.48211 -6.182628,0.99089 -9.273238,1.5154 -6.181216,1.04902 -12.359452,2.16174 -18.527764,3.25196 -3.084156,0.54512 -6.165665,1.08449 -9.244132,1.6078 -3.078466,0.52331 -6.153766,1.0301 -9.224902,1.5102 -3.071133,0.48012 -6.138311,0.93326 -9.200471,1.34877 -3.062163,0.41548 -6.119303,0.79342 -9.17085,1.12291 -1.729899,0.18679 -3.453675,0.31814 -5.179749,0.47191 V 1269.1228 H 710.47627 Z" />
      <path
         style="fill:#0c7e3f;fill-opacity:1;stroke:#52bc7a;stroke-width:0;stroke-miterlimit:4;stroke-dasharray:none;stroke-opacity:1"
         d="m 12.699815,967.63312 c 7.62334,5.0868 2.170157,22.57232 10.656905,26.73842 6.526602,3.2039 13.25027,-8.72347 18.837963,-11.23788 4.473075,-2.01282 11.965776,4.54972 16.039182,5.61895 8.022815,2.10593 19.303547,1.33332 27.557251,0.4844 29.590904,-3.04355 -21.074872,-28.21638 -24.650822,-35.4575 -0.967136,-1.95839 -6.405565,-9.83374 -1.722329,-5.61893"
         id="path91010" />
      <path
         id="path12392"
         style="fill:#0c7e3f;fill-opacity:1;stroke:#52bc7a;stroke-width:0;stroke-miterlimit:4;stroke-dasharray:none;stroke-opacity:1"
         d="m 1.0864058,541.56952 0.048611,441.62182 c 0.2793576,-0.15394 0.5702569,-0.291 0.8478216,-0.44754 9.7638106,-5.50646 14.9170076,-14.52787 26.6289276,-17.874 51.971157,-14.84818 110.412324,2.20286 164.495524,-5.39674 144.99078,-20.37359 -38.14771,-80.72873 -60.72516,-94.60813 -10.81177,-6.64655 -16.18889,-16.44102 -25.28407,-24.28898 -5.98688,-5.16588 14.7807,7.59135 23.02825,7.94291 19.16856,0.81704 61.21633,0.45631 72.45268,-18.19562 10.7403,-17.82843 -85.28167,-52.76304 -98.00996,-65.53494 -4.22483,-4.23939 -37.707133,-35.85069 -30.877951,-43.32983 0.439408,-0.48121 51.027021,9.23268 66.392161,-4.26694 23.91132,-21.0083 -10.32757,-39.10934 -26.50226,-46.47576 C 54.897804,643.98957 38.948664,553.47284 1.0864058,541.56952 Z" />
      <path
         style="fill:#f9f9f9;fill-opacity:1;stroke:#52bc7a;stroke-width:0;stroke-miterlimit:4;stroke-dasharray:none;stroke-opacity:1"
         d="m 209.2624,494.23716 c 13.46865,-4.69807 106.78273,-1.67436 103.3667,12.46759 -2.56763,10.62974 -36.67223,18.75306 -29.22887,33.97766 8.4123,17.20654 39.45737,0.60161 50.54161,9.04245 7.89159,6.00959 -9.44211,19.4949 -2.588,24.38718 30.58954,21.83402 205.99823,15.6043 249.66335,16.85184 11.3825,0.3252 32.7897,-4.49448 43.08213,0.137 10.38299,4.67223 -23.87309,12.86862 -25.27081,13.01562 -3.7026,0.3895 -89.3015,1.79642 -92.25362,16.85184 -10.044,51.22297 123.5175,31.68486 108.23819,59.1869 -6.97915,12.5621 -61.7183,14.19254 -76.26911,18.22188 -38.06203,10.53997 -60.62583,37.031 -103.3667,40.96499 -38.41266,3.53562 -151.64821,-56.83959 -189.53101,-73.29858 -24.65807,-10.71322 -34.03937,14.71043 -76.2691,-17.53685 -44.66248,-34.10498 47.90898,-46.58318 27.5543,-62.61206 -26.54879,-20.90661 -73.85198,9.89912 -101.996598,-16.30378 -38.831589,-36.15259 92.380898,-42.45052 102.910008,-48.9114 9.7507,-5.98321 -4.94865,-18.6268 11.41753,-26.44228 z"
         id="path101052" />
      <path
         style="fill:#4e5f09;fill-opacity:1;stroke:#52bc7a;stroke-width:0;stroke-miterlimit:4;stroke-dasharray:none;stroke-opacity:1"
         d="m 273.45438,637.99315 c 11.30179,5.67224 -8.27535,-8.78741 -10.77395,-6.10118 -10.29918,11.07253 -5.10159,30.44763 -8.60997,43.02309 -6.55899,23.5102 -18.84675,50.04709 -34.76428,71.55603 -3.14841,4.25432 -45.64137,30.62597 -35.99658,33.73169 9.12478,2.93831 28.82122,1.63491 36.16268,-3.75366 5.56061,-4.08148 8.79478,-18.59178 13.09284,-14.076 16.27413,17.09847 -63.92998,86.09157 -79.62645,99.45206 -4.22213,3.59379 -24.85698,19.55129 -16.73966,23.23279 15.21719,6.90162 44.91355,2.46484 57.10094,-6.57174 2.34225,-1.73671 21.23237,-18.03873 21.38184,-17.77561 7.91449,13.93023 -55.98417,102.79563 -74.60659,112.03213 -5.49161,2.72374 -29.06394,20.29414 -16.97885,25.41684 50.01921,21.20241 117.35822,-42.38037 158.3417,-49.8002 49.65606,-8.98996 117.16149,42.55119 164.42322,21.41507 19.79424,-8.85228 -93.52278,-83.69938 -98.74478,-106.9938 -5.97541,-26.65515 53.51035,13.84998 56.90038,-14.08836 0.7481,-6.16535 -58.88733,-33.11887 -68.6829,-47.461 -47.78469,-69.96371 32.70052,-5.06813 30.25047,-34.78228 -0.34095,-4.13498 -0.47847,-7.06026 -3.60105,-10.62553 -14.7484,-16.83935 -34.20839,-29.88774 -47.14955,-48.14627 -9.06791,-12.79385 -4.68934,-76.05822 -41.37946,-69.68407 z"
         id="path12822"
         inkscape:transform-center-y="86.501297"
         inkscape:transform-center-x="-0.80336579" />
      <path
         style="fill:#4e5f09;fill-opacity:1;stroke:#52bc7a;stroke-width:0;stroke-miterlimit:4;stroke-dasharray:none;stroke-opacity:1"
         d="m 206.96447,778.31452 c 6.72417,3.78378 29.06505,6.02175 35.68448,-1.25942 3.20491,-3.52531 3.46089,-9.42345 3.65995,-13.90203 0.10819,-2.43427 1.81052,-10.71295 -1.39939,-12.01293 -9.26541,-3.7524 -44.00589,17.45094 -37.94504,27.17438 z"
         id="path17616" />
      <path
         style="fill:#4e5f09;fill-opacity:1;stroke:#52bc7a;stroke-width:0;stroke-miterlimit:4;stroke-dasharray:none;stroke-opacity:1"
         d="m 192.33377,780.74363 c 8.59944,7.76335 15.76769,17.18313 24.96633,24.25017 70.33312,54.03498 40.73253,-51.10091 39.12407,-51.5145 -16.14922,-4.15253 -44.25732,21.5841 -56.02201,28.36039"
         id="path17733" />
      <path
         style="fill:#4e5f09;fill-opacity:1;stroke:#52bc7a;stroke-width:0;stroke-miterlimit:4;stroke-dasharray:none;stroke-opacity:1"
         d="m 300.2675,756.63046 c 110.79601,-15.27868 21.85503,112.78729 -6.6983,20.27698 -7.24945,-23.4876 27.61472,-32.08378 37.14504,-12.33059"
         id="path23517" />
      <path
         style="fill:#0c7e3f;fill-opacity:1;stroke:#52bc7a;stroke-width:0;stroke-miterlimit:4;stroke-dasharray:none;stroke-opacity:1"
         d="m 96.017439,951.26068 c -44.325328,-42.19715 -35.262682,65.35882 5.489921,16.5662 14.98663,-17.94333 2.26684,-42.03851 -18.945611,-26.44778"
         id="path91012" />
      <path
         style="fill:#6e870d;fill-opacity:1;stroke:#52bc7a;stroke-width:0;stroke-miterlimit:4;stroke-dasharray:none;stroke-opacity:1"
         d="m 279.13769,597.93599 c -34.38812,-5.52624 -32.01218,48.16639 -39.73301,71.79152 -2.16875,6.63617 -17.41018,34.08481 -13.54881,39.73192 3.03168,4.4337 20.03473,-2.33373 20.55156,-0.82203 4.13421,12.09222 -2.29808,26.74654 2.2835,38.77288 1.86917,4.90644 12.58057,15.66699 18.42028,9.31646 7.17571,-7.80336 8.32279,-23.07143 11.41754,-33.01862 0.45172,-1.45196 1.74064,-5.612 1.97903,-4.1102 1.7485,11.01524 -5.1218,37.43632 10.19966,41.37602 20.1427,5.17943 63.78742,22.48566 75.05123,-0.68504 10.2075,-20.99767 -28.1695,-40.82068 -38.66737,-54.11763 -22.4382,-28.42099 -2.73341,-99.09919 -47.95361,-108.23528 z"
         id="path100721" />
      <path
         style="fill:#0e964b;fill-opacity:1;stroke:#52bc7a;stroke-width:0;stroke-miterlimit:4;stroke-dasharray:none;stroke-opacity:1"
         d="m 53.718742,763.06682 c 8.755198,-7.23604 4.229521,-31.17197 14.487988,-37.32686 3.796178,-2.27767 18.780067,19.8797 22.442178,22.62621 8.43697,6.32756 40.919992,14.79412 35.225702,30.16829 -4.52568,12.21899 -37.578126,10.93751 -46.872906,19.3026 -4.912408,4.42106 -23.83449,-7.41376 -27.413548,-2.04531 -7.675549,11.513 -7.278431,77.81158 -38.066478,66.72818 -1.023611,-0.36848 -3.193333,-85.49277 3.408939,-92.80585 0.125257,-0.13875 32.200608,-5.27103 36.788125,-6.64726 z"
         id="path109241" />
      <path
         style="fill:#3d4a07;fill-opacity:1;stroke:#52bc7a;stroke-width:0;stroke-miterlimit:4;stroke-dasharray:none;stroke-opacity:1"
         d="m 314.36048,829.028 c -24.71854,-12.88915 -60.44531,-35.564 -89.91074,-27.35599 -70.23097,19.56382 -31.49016,160.42344 60.36662,166.82045 67.8997,4.72858 124.45939,-62.41269 72.58198,-120.92884 -16.62192,-18.74901 -32.1392,-14.72933 -52.55448,-21.85924"
         id="path121572" />
      <path
         style="fill:#0fa11d;fill-opacity:1;stroke:#52bc7a;stroke-width:0;stroke-miterlimit:4;stroke-dasharray:none;stroke-opacity:1"
         d="m 118.66769,696.89939 c 6.18381,28.34392 -3.42931,67.72229 -30.079881,88.87218 -8.648943,6.86384 -29.557161,18.47663 -33.775753,27.69247 -4.306947,9.40887 18.187665,11.29854 24.509412,10.71555 52.340342,-4.82678 19.714168,19.42109 3.630872,41.34037 -8.751174,11.92666 -58.517935,55.89852 -58.334115,65.22087 0.39598,20.08312 87.196945,4.6715 87.051985,5.10059 -6.23637,18.46081 -34.897279,45.65203 -53.241717,57.72902 -12.004735,7.90326 -40.739375,7.51956 -35.323242,25.85056 4.041901,13.6799 48.886718,8.2016 60.391841,7.7119 25.482828,-1.0846 54.922958,-2.8606 76.818068,-12.7323 8.34341,-3.7619 12.36543,-10.1377 22.57683,-12.3101 45.31273,-9.63968 98.37136,3.7514 146.0153,-0.6423 127.72778,-11.7789 -38.97555,-58.71323 -59.92846,-69.12239 -10.0338,-4.98468 -15.42887,-12.12287 -24.01036,-17.93646 -5.64876,-3.82676 13.62425,5.74119 20.98405,6.15568 17.10527,0.96334 54.4925,1.53051 63.32612,-11.64083 8.44362,-12.58979 -79.16637,-39.55996 -91.28738,-48.98035 -4.02331,-3.12693 -35.78395,-26.48186 -30.17452,-31.71772 0.36093,-0.33685 45.97429,7.63187 58.80268,-1.75894 C 286.58297,811.83307 254.992,798.16366 240.14188,792.55668 179.69521,769.73363 162.09757,690.31351 118.66769,696.89939 Z"
         id="path11040"
         inkscape:transform-center-x="-15.309979"
         inkscape:transform-center-y="-26.68622" />
      <path
         style="fill:#0fa11d;fill-opacity:1;stroke:#52bc7a;stroke-width:0;stroke-miterlimit:4;stroke-dasharray:none;stroke-opacity:1"
         d="m 78.363574,1016.0723 c 2.801985,0.3674 10.019683,-2.2991 13.025106,0 16.04955,12.2776 -25.974595,39.2495 17.76151,32.8418 4.51542,-0.6616 9.0234,-1.2169 13.56333,-1.647 14.6233,-1.3853 25.27655,-15.2571 37.56829,-21.8945 2.27432,-1.2281 6.74789,4.1147 9.36516,2.6157 1.30075,-0.7449 4.29706,-5.7337 6.02814,-5.1345 3.85927,1.3359 6.26524,5.9484 10.01103,7.0721 10.46121,3.1383 87.13634,2.6848 90.42223,0.6782 6.15431,-3.7585 6.0461,-17.4404 4.30583,-23.929 -2.28952,-8.53637 -19.5661,-13.87725 -26.80374,-17.05058 -8.56508,-3.75536 -41.80713,-1.62483 -50.28695,-5.28803 -11.51225,-4.97314 -71.12826,34.81531 -79.56588,36.78401 -13.38082,3.1221 -40.490528,-22.87263 -39.042972,-3.9825"
         id="path75991"
         sodipodi:nodetypes="cssssssssssssc" />
      <path
         style="fill:#35dc45;fill-opacity:1;stroke:#52bc7a;stroke-width:0;stroke-miterlimit:4;stroke-dasharray:none;stroke-opacity:1"
         d="m 90.376701,974.75621 c -20.828583,-15.61582 -36.719405,9.71015 -52.309319,21.85924 -4.326993,3.37198 -19.2731,7.43555 -21.178894,12.52745 -1.628972,4.3524 2.457216,6.9677 5.230932,8.8205 14.883361,9.9415 38.66886,0.3028 53.329987,-4.9855 7.006937,-2.5274 15.422555,-8.2989 22.709898,-8.8204 8.524905,-0.6101 -1.074848,15.1015 9.823945,14.0615 9.56511,-0.9127 13.87209,-10.982 22.32715,-13.8058 4.52952,-1.5128 6.59125,4.2522 11.48253,2.1731 4.77926,-2.0315 8.49245,-8.59327 13.65146,-9.3317 5.81566,-0.83243 15.82303,12.5282 22.45473,14.1893 6.85547,1.7172 6.27818,-16.05617 10.9722,-18.40776 6.20438,-3.10819 16.98389,1.72439 23.47541,1.15049 20.87496,-1.84547 127.55872,-32.04385 70.64969,-49.78088 -14.16172,-4.41383 -18.14611,-9.02171 -28.92982,-9.02171 -8.02371,0 -15.30156,4.67244 -23.09266,3.96277 -6.49728,-0.59182 -6.35919,-3.40619 -13.03825,-2.18948 -5.63302,1.02618 -15.49554,-0.0134 -21.79704,0.68818 -8.13182,0.90528 -7.81547,10.02031 -15.96773,12.06233 -6.74642,1.6899 -22.39736,-4.79576 -29.6212,-2.98627 -13.35854,3.34611 -24.40095,-5.55523 -36.13585,0.32363 -6.4334,3.22297 -19.375391,21.78924 -24.037169,27.51101 z"
         id="path142497"
         sodipodi:nodetypes="csscsssssssssssssssssc" />
      <path
         style="fill:#0d8835;fill-opacity:1;stroke:#52bc7a;stroke-width:0;stroke-miterlimit:4;stroke-dasharray:none;stroke-opacity:1"
         d="m 24.110239,932.75691 c 19.081762,12.64656 54.197129,15.27776 76.428311,5.61896 1.02034,-0.44331 5.26434,-4.27654 6.13579,-3.10012 9.07505,12.251 -43.348148,44.62838 -41.443519,48.34231 6.862829,13.38215 39.000929,-1.66598 46.395219,-7.75026 3.63798,-2.99347 24.30649,-26.0713 25.83492,-25.28527 6.74611,3.46935 -1.76747,17.71837 3.87523,20.92573 15.61124,8.87352 10.86167,-23.70616 20.12972,-24.89774 5.04944,-0.64918 11.78471,17.65126 18.40738,20.15069 26.17921,9.88029 4.81652,-19.53262 13.77862,-26.25402 2.44666,-1.83494 18.05341,14.47171 25.2967,12.9817 10.26391,-2.11137 2.45651,-11.30413 7.53518,-15.11302 2.92679,-2.19504 12.37277,6.89583 14.96273,7.65339 3.02875,0.88588 48.62724,1.20007 49.83986,0.29064 7.22257,-5.41678 -21.62152,-15.6456 -23.57435,-16.56622 -4.20134,-1.98057 -16.57038,-7.63114 -11.94866,-7.16899 17.18989,1.71894 44.24703,10.48948 57.91329,-5.90958 0.40447,-0.48535 3.16847,-3.64712 2.47584,-4.35951 -8.67619,-8.92387 -55.22392,-5.22578 -70.61545,-10.94727 -5.15823,-1.91746 -17.42418,-10.48596 -23.03614,-6.87837 -9.28869,5.97114 8.95519,21.27512 -3.44466,29.64479 -2.46774,1.66568 -7.88184,-6.54672 -8.18106,-3.5845 -3.03112,30.0073 -22.42105,-2.3804 -31.43248,9.78472 -2.22624,3.00532 -0.80208,7.77269 -3.01408,10.55973 -0.94133,1.18605 -15.81443,-14.30853 -20.23735,-12.9817 -7.05644,2.11688 -3.52468,7.82227 -7.10461,11.04413 -1.60699,1.44627 -7.27231,-8.91757 -11.19513,-8.5253 -5.70573,0.57058 -9.27197,11.07739 -14.96272,13.27235 -0.43549,0.16796 1.08411,-10.15958 0.43058,-11.23789 -3.63489,-5.99741 -13.47477,-6.49086 -19.48384,-6.49086 -19.407001,0 -37.528216,7.01302 -56.944473,8.0409 -7.795074,0.41267 -15.051555,-1.70572 -22.820848,-1.25942 z"
         id="path72676" />
      <path
         style="fill:#35dc45;fill-opacity:1;stroke:#52bc7a;stroke-width:0;stroke-miterlimit:4;stroke-dasharray:none;stroke-opacity:1"
         d="m 86.813852,859.06847 c -11.996497,-1.01703 -72.23728,64.37185 -68.746922,72.22495 8.745778,19.67746 46.809836,-16.5381 58.236029,-18.40777 8.041561,-1.31586 16.879736,6.36939 24.998881,4.85759 9.06769,-1.68842 37.22071,-8.39396 43.606,-4.85759 3.79061,2.09933 21.72394,10.22895 25.99316,8.9482 5.5047,-1.65137 7.19236,-7.60986 11.36313,-10.73785 2.74344,-2.05753 7.54175,4.5288 9.51662,3.1958 13.74779,-9.27952 20.51443,-24.12365 35.08365,-30.67963 15.50234,-6.97587 37.82699,19.96887 53.97485,6.64724 11.25858,-9.28807 -18.59176,-19.96896 -24.71479,-23.13755 -4.81446,-2.4914 -14.07016,-15.3447 -19.31732,-13.67798 -6.39463,2.03118 -2.96845,14.70805 -11.64721,15.21198 -12.26155,0.71194 -11.78262,-5.49558 -21.02178,-7.15859 -9.29283,-1.67267 -9.56633,4.23336 -17.18673,6.51941 -6.32501,1.89746 -17.40795,-6.24906 -21.87402,1.78967 -12.02766,21.64918 -8.55995,-3.83043 -25.85112,-7.92557 -9.88526,-2.34119 -15.58715,14.55182 -20.59567,13.55016 -11.75543,-2.35104 -17.08189,-17.40255 -31.816758,-16.36247 z"
         id="path142495" />
      <path
         id="path11623"
         style="fill:#042e18;fill-opacity:1;stroke:#52bc7a;stroke-width:0;stroke-miterlimit:4;stroke-dasharray:none;stroke-opacity:1"
         d="m 719.44201,626.15248 c -0.45771,3.38799 -1.06126,6.59719 -1.98517,9.48118 -9.24508,28.85837 -25.09085,61.05682 -44.53449,86.69752 -3.84584,5.07157 -53.1385,34.74597 -42.71581,39.36495 9.86075,4.36997 31.78975,4.25381 40.37597,-1.91248 6.50351,-4.67057 11.30783,-22.54444 15.68893,-16.57483 16.58841,22.60323 -78.06735,102.61297 -96.58012,118.09409 -4.97966,4.16421 -29.18185,22.50977 -20.49973,27.7306 16.27603,9.78729 49.54626,6.52533 63.80774,-3.825 2.74089,-1.98923 25.03937,-20.89888 25.1828,-20.55882 7.59465,18.00485 -70.67146,124.08418 -92.07833,134.19028 -6.31269,2.98023 -33.90425,23.11453 -20.94812,30.43973 52.36804,29.6082 129.83509,-40.4879 176.3016,-49.49056 z" />
      <path
         style="fill:#0c7e68;fill-opacity:1;stroke:#52bc7a;stroke-width:0;stroke-miterlimit:4;stroke-dasharray:none;stroke-opacity:1"
         d="m 527.85692,686.20901 c 15.89312,-127.19756 31.8353,4.94961 45.82237,36.99182 9.01657,20.65562 29.61986,49.69917 49.93264,60.28293 6.13108,3.19453 16.81829,3.99677 21.6172,9.17945 15.73366,16.99192 -59.48257,15.5185 -38.66737,34.25167 19.59583,17.63577 42.74198,25.8423 66.98284,35.75875 1.76136,0.72054 7.19651,1.24547 7.76393,3.28816 9.12479,32.84839 -44.5598,37.85024 -63.32924,35.34773 -10.26284,-1.36835 10.45456,9.7659 15.3756,13.15265 23.026,15.84687 72.95862,16.10402 54.80415,49.87041 -20.30156,37.75992 -114.89137,19.29429 -136.09695,-15.89276 -17.3563,-28.79984 -20.43285,-66.61134 -25.57526,-99.19284 -4.83346,-30.62393 -34.16713,-138.88781 1.37009,-163.03797 z"
         id="path30471" />
      <path
         style="fill:#0c7e68;fill-opacity:1;stroke:#52bc7a;stroke-width:0;stroke-miterlimit:4;stroke-dasharray:none;stroke-opacity:1"
         d="m 536.61447,692.145 c 9.23477,5.30206 -6.43616,-7.74139 -8.75474,-5.63225 -9.55702,8.69376 -6.48843,25.09474 -10.36272,35.38764 -7.24312,19.2429 -19.58205,40.71313 -34.66158,57.81047 -2.98263,3.38174 -41.05634,23.16855 -33.05357,26.2485 7.57129,2.9139 24.45179,2.83648 31.08822,-1.27523 5.02665,-3.11435 8.80321,-15.03257 12.14942,-11.052 12.67004,15.07194 -60.54348,68.4226 -74.86187,78.74549 -3.85144,2.77672 -22.56174,15.00959 -15.90144,18.49084 12.48579,6.52622 38.11027,4.3512 49.13369,-2.55046 2.11857,-1.32641 19.36588,-13.93548 19.47481,-13.70871 5.76712,12.00572 -54.9446,82.73988 -71.4672,89.47867 -4.87237,1.98722 -26.19987,15.41293 -16.2588,20.29742 41.14533,20.21652 103.01262,-29.28696 138.46768,-33.36854 42.95778,-4.94529 96.87577,41.43129 138.64631,26.24851 17.4944,-6.35887 -73.83456,-74.48844 -76.64853,-94.15455 -3.21993,-22.50336 44.63786,14.27235 49.49102,-8.82034 1.071,-5.09603 -47.86682,-30.59404 -55.2084,-43.03903 -35.81359,-60.70908 28.22954,-2.54707 28.22954,-27.41746 0,-3.46093 0.0883,-5.90405 -2.32268,-9.03289 -11.38778,-14.77807 -27.05804,-26.64027 -36.80559,-42.50769 -6.83016,-11.11837 1.34842,-63.57889 -30.37357,-60.14839 z"
         id="path11541" />
      <path
         style="fill:#075310;fill-opacity:1;stroke:#52bc7a;stroke-width:0;stroke-miterlimit:4;stroke-dasharray:none;stroke-opacity:1"
         d="m 690.19594,810.36458 c -13.19779,-4.83629 -7.59061,-26.4305 -23.57848,-24.03237 -14.18378,2.12749 -20.62945,13.32489 -30.53842,22.2427 -4.21862,3.79667 -32.30504,27.68087 -28.97597,32.34145 10.10007,14.13973 50.7447,10.65411 66.75837,8.4369 10.63532,-1.47254 22.40375,11.28379 24.7148,9.20388 5.33617,-4.80243 5.69712,-14.65213 6.95992,-21.09224 3.67337,-18.73361 -1.20925,-17.63612 -15.34022,-27.10032 z"
         id="path112359" />
      <path
         style="fill:#12bf6c;fill-opacity:1;stroke:#52bc7a;stroke-width:0;stroke-miterlimit:4;stroke-dasharray:none;stroke-opacity:1"
         d="m 607.44123,823.86566 c 11.84386,4.61695 20.907,14.11899 33.04717,18.11623 10.93801,3.60146 55.50146,6.47293 47.36404,27.22282 -3.48313,8.88175 -14.85312,10.86959 -23.25145,11.62542 -20.1795,1.8161 -36.43161,-15.78052 -56.19093,-11.33477 -5.41137,1.21753 3.6205,16.69248 -4.95171,18.40687 -3.84969,0.76994 -8.83457,-12.59459 -13.45567,-9.59096 -4.64561,3.01956 -0.47771,9.67981 -2.90643,12.5942 -1.00729,1.20869 -3.19188,-2.19814 -4.52112,-1.35629 -22.59176,14.30772 -7.98988,2.72942 -30.78662,5.23143 -7.8731,0.8641 -15.06593,17.39849 -24.54317,13.95047 -6.41411,-2.33357 -8.82272,-12.17967 -12.48688,-17.34122 -3.27245,-4.60975 -9.52683,-6.5397 -12.16393,-11.62539 -9.40604,-18.13975 3.74703,-35.7827 20.02205,-43.69215 8.04201,-3.90832 71.78532,-12.43677 84.82465,-12.20666 z"
         id="path85119" />
      <path
         style="fill:#552200;fill-opacity:1;stroke:#52bc7a;stroke-width:0;stroke-miterlimit:4;stroke-dasharray:none;stroke-opacity:1"
         d="m 373.95814,924.80214 c -0.92782,17.57693 -3.79834,34.5717 -9.90338,51.05489 -5.19444,14.02456 -24.22451,83.69527 -17.33093,96.10337 8.62801,15.53 150.95543,21.1567 169.6493,-3.5846 8.93305,-11.8228 -7.44956,-34.3933 -11.19513,-45.6297 -11.76335,-35.2891 -7.23768,-93.28844 -48.76339,-109.56936 -35.32333,-13.84916 -60.75953,11.6254 -82.45647,11.6254 z"
         id="path61821" />
      <path
         style="fill:#0d8835;fill-opacity:1;stroke:#52bc7a;stroke-width:0;stroke-miterlimit:4;stroke-dasharray:none;stroke-opacity:1"
         d="m 51.990426,815.72787 c 3.45577,15.91474 19.832076,19.37567 34.23127,19.37567 4.515384,0 8.682167,-1.56876 12.594524,-3.68138 0.454276,-0.2453 4.1216,-3.52856 4.19818,-3.39074 8.62074,15.51691 -42.813787,35.49242 -31.540137,49.02044 4.39039,5.26833 19.625204,3.02275 24.758464,0.0969 3.874323,-2.20832 9.952503,-12.32895 10.764553,-7.94404 1.3749,7.42429 -3.31461,24.23975 2.69114,29.64479 5.39573,4.85603 13.6461,-3.8 15.17801,-8.42841 2.90352,-8.77252 0.55809,-23.725 12.80982,-24.60712 8.21519,-0.59148 8.94438,32.38291 22.39026,34.19806 16.04361,2.16582 8.38661,-29.05472 15.39331,-35.36059 2.30741,-2.07661 9.89238,10.12553 11.84101,11.04413 10.3666,4.88699 9.91778,-10.77105 15.50095,-12.20668 4.97853,-1.28016 10.6921,8.80142 15.07037,10.85038 7.3137,3.42273 31.35774,8.12869 38.42945,0.9688 10.91944,-11.05567 -20.69783,-23.67029 -27.55725,-31.0011 -7.01253,-7.49443 -15.28673,-14.49914 -14.85508,-14.62863 0.87626,-0.26286 64.06025,19.87037 47.04108,-4.4564 -7.55338,-10.79661 -28.78664,-10.21175 -40.15177,-14.24112 -3.1515,-1.11731 -19.56104,-13.95621 -21.5291,-12.69106 -10.46595,6.72793 1.28232,38.65486 -3.22937,38.84822 -5.60922,0.2404 -15.91436,-6.62202 -19.26854,-5.32831 -7.09785,2.73767 -2.59519,15.39864 -13.02511,13.4661 -5.52043,-1.02288 -9.23748,-14.1037 -17.00799,-11.04413 -6.30841,2.48385 -9.05755,11.24942 -16.57741,11.62539 -6.39444,0.31972 -4.39215,-11.92451 -13.67098,-2.42194 -0.48968,0.50149 -12.91355,9.76712 -12.27158,6.87834 0.60223,-2.70999 6.69662,-5.07428 8.2887,-7.65339 8.25914,-13.37945 4.78264,-29.64476 -11.08749,-29.64476 -10.207663,0 -40.083508,-8.83518 -42.842908,1.45317"
         id="path72678" />
      <path
         style="fill:#35dc45;fill-opacity:1;stroke:#52bc7a;stroke-width:0;stroke-miterlimit:4;stroke-dasharray:none;stroke-opacity:1"
         d="m 139.79444,691.22538 c -9.47165,-2.55167 -21.85332,-7.21424 -27.12947,3.7071 -5.07249,10.49978 -3.06783,23.54834 -7.10195,34.77025 -6.954099,19.3445 -22.349708,40.24225 -32.668998,57.26864 -3.732373,6.15825 -27.252538,30.18393 -18.749163,37.19904 13.343922,11.00843 55.795221,-13.34371 67.752651,-20.0696 15.79281,-8.8832 9.74158,-3.86676 14.34595,8.56472 5.09923,13.76757 17.52005,-0.096 20.87975,-6.64723 4.40919,-8.59772 10.13948,-21.44623 22.72625,-19.55827 14.16842,2.12521 79.40641,28.70782 83.51899,25.18286 7.67058,-6.57461 8.73098,-16.26971 0.28408,-22.24273 -19.55227,-13.82588 -39.18381,-16.73135 -58.23603,-35.53722 -21.83268,-21.55039 -33.93776,-53.51274 -65.62206,-62.63756 z"
         id="path142493" />
      <path
         style="fill:#19e97e;fill-opacity:1;stroke:#52bc7a;stroke-width:0;stroke-miterlimit:4;stroke-dasharray:none;stroke-opacity:1"
         d="m 431.02631,544.73625 c -1.44172,13.04732 -1.00489,26.17286 -2.69858,39.20729 -5.12908,39.47284 -17.63326,75.29687 -51.13103,102.41415 -8.60562,6.96645 -52.14001,31.39486 -53.11948,41.22704 -0.27582,2.76842 3.3702,2.65846 5.68121,2.97027 13.58771,1.83325 24.89718,-0.62633 37.35409,-5.70289 4.71623,-1.92201 9.14936,-12.63811 12.21462,-8.79195 2.1737,2.72747 -7.66014,17.2019 -9.23198,19.24723 -17.34393,22.56852 -47.75263,56.70751 -76.69658,67.60285 -13.37568,5.03499 -24.43753,12.35995 -37.35408,18.17791 -1.3373,0.60237 -15.91388,3.9766 -13.919,5.70287 13.43198,11.62342 45.57029,9.72721 61.64132,4.03955 1.79199,-0.6342 27.68638,-10.74109 27.696,-10.6929 4.62868,23.23167 -49.2077,57.76103 -68.4588,68.90976 -2.90766,1.68389 -32.53171,13.48227 -31.95692,14.73243 7.01213,15.25084 51.0576,12.6092 64.19789,9.86123 8.00816,-1.67473 17.46734,-4.01484 25.13943,-7.00979 1.50728,-0.5884 4.26092,-3.77692 4.26092,-2.2574 0,27.4566 -92.04042,109.0456 -115.47096,127.2454 -3.52172,2.7355 -31.47173,20.306 -30.96268,23.2868 2.4213,14.1782 49.09374,6.5055 58.37461,4.5148 47.04988,-10.0917 96.85813,-27.3239 141.60459,-43.3656 14.73027,-5.2809 26.25831,-19.69293 40.90485,-24.59371 13.7175,-4.58992 40.46669,16.93621 50.98901,22.21741 26.58782,13.3446 185.33648,64.0537 206.22858,40.7518 4.04598,-4.5126 -17.09239,-17.6011 -20.45245,-19.366 -40.28933,-21.1619 -86.35926,-36.77856 -116.32312,-72.2364 -7.21483,-8.5377 -13.77699,-17.8215 -17.75382,-28.03915 -9.6798,-24.87004 24.42855,1.78216 48.14838,1.78216 2.92513,0 30.92115,-6.51871 24.8554,-13.54435 -9.69566,-11.22988 -30.63059,-17.10825 -43.88752,-23.76199 -20.4436,-10.26074 -48.41843,-34.98196 -58.3746,-54.41493 -5.07134,-9.89852 59.18277,16.04577 67.74864,-8.31669 0.48934,-1.39173 4.2994,-4.05846 3.97686,-5.22764 -4.45191,-16.13759 -72.70351,-40.93315 -85.92859,-67.48404 -2.17731,-4.37124 -6.67542,-11.45697 -6.67542,-16.5146 0,-0.23039 21.64997,3.04699 22.86694,3.08908 53.48286,1.84871 58.87668,-10.94057 26.55975,-40.63298 -5.62284,-5.1662 -11.88264,-9.53947 -17.46978,-14.73245 -13.19166,-12.26103 -24.84465,-30.68509 -31.67286,-47.04873 -7.93327,-19.01197 -14.254,-101.06017 -40.90484,-103.24584 z"
         id="path14218" />
      <path
         style="fill:#19e97e;fill-opacity:1;stroke:#52bc7a;stroke-width:0;stroke-miterlimit:4;stroke-dasharray:none;stroke-opacity:1"
         d="m 326.29946,729.91416 c 19.04195,20.39373 62.18449,17.40521 76.57356,-8.49443 5.63377,-10.14052 7.34041,-29.43952 10.50414,-37.81385"
         id="path20305" />
      <path
         style="fill:#19e97e;fill-opacity:1;stroke:#52bc7a;stroke-width:0;stroke-miterlimit:4;stroke-dasharray:none;stroke-opacity:1"
         d="m 251.70492,830.75107 c 13.93534,14.97637 -0.36562,-9.79538 -1.3701,-7.53536 -14.75679,33.20187 88.58632,40.70289 99.71311,-6.02829"
         id="path20307" />
      <path
         style="fill:#19e97e;fill-opacity:1;stroke:#52bc7a;stroke-width:0;stroke-miterlimit:4;stroke-dasharray:none;stroke-opacity:1"
         d="m 559.97824,841.16359 c -43.47409,63.28828 -91.74488,-1.65169 -75.96463,-11.64559 19.05794,-12.0697 55.40182,7.86885 75.96463,11.64559 z"
         id="path20313" />
      <path
         style="fill:#19e97e;fill-opacity:1;stroke:#52bc7a;stroke-width:0;stroke-miterlimit:4;stroke-dasharray:none;stroke-opacity:1"
         d="m 540.34009,740.05264 c -17.21411,15.78362 -39.67363,32.93984 -65.00381,24.79821 -6.20403,-1.99409 -33.309,-27.64607 -23.74847,-33.29263 29.06718,-17.16733 60.62798,16.43518 88.75228,8.49442 z"
         id="path20315" />
      <path
         style="fill:#19e97e;fill-opacity:1;stroke:#52bc7a;stroke-width:0;stroke-miterlimit:4;stroke-dasharray:none;stroke-opacity:1"
         d="m 205.5781,1054.757 c 11.21814,-1.1998 22.39758,0.053 33.49143,-2.3291 20.38453,-4.3779 39.66115,-13.0902 60.58903,-14.6597 33.94009,-2.5455 69.19018,0.5388 102.91,-3.5622 16.6714,-2.0276 31.84382,-9.0066 49.47595,-5.4803 46.35666,9.2711 89.67589,30.3313 137.01038,34.9367 11.65402,1.1339 63.14717,7.4521 70.94092,-6.5763 5.21624,-9.389 -107.76926,-31.0316 -121.17805,-35.6217 -52.00319,-17.8019 -98.03011,-36.40574 -154.21279,-29.18246 -40.73737,5.23754 -76.23998,32.77416 -113.87082,46.71926 -15.47656,5.7353 -49.08351,14.5671 -55.71756,17.1259"
         id="path20317" />
      <path
         style="fill:#12bf6c;fill-opacity:1;stroke:#52bc7a;stroke-width:0;stroke-miterlimit:4;stroke-dasharray:none;stroke-opacity:1"
         d="m 679.45608,927.81614 c 18.72519,-0.50287 32.69403,20.08473 9.14987,25.76962 -16.17729,3.90612 -60.89314,-1.17573 -72.12248,6.68462 -9.74619,6.82215 8.9489,32.551 -32.61659,45.43592 -6.61119,2.0494 -15.41134,8.6095 -22.60555,6.2971 -12.67843,-4.0751 -30.03867,-64.22731 -26.05021,-77.98707 7.31171,-25.22474 44.18306,-8.49881 61.35793,-10.55973 5.729,-0.68747 3.35436,-10.58048 10.22631,-8.33155 13.20879,4.32277 12.5522,21.13894 33.26246,23.15393 7.24546,0.70495 10.39982,-5.72934 16.79271,-8.13777 5.94632,-2.2402 16.1318,-1.88811 22.60555,-2.32507 z"
         id="path85121" />
      <path
         style="fill:#085949;fill-opacity:1;stroke:#52bc7a;stroke-width:0;stroke-miterlimit:4;stroke-dasharray:none;stroke-opacity:1"
         d="m 511.36872,820.71894 c 7.67792,2.67446 14.16788,7.77838 21.87403,10.35437 11.50588,3.84616 24.32741,6.77507 36.50403,6.77507 4.45569,0 11.04572,-5.94024 13.20964,-2.0453 7.39095,13.30338 -28.561,25.33078 -32.81103,32.9806 -5.93764,10.68747 3.27494,38.37887 7.38603,47.93692 8.94718,20.80159 48.63153,20.20869 38.49259,51.00486 -8.66902,26.33152 -55.42243,39.94544 -78.83168,26.71683"
         id="path139780" />
      <path
         style="fill:#19e97e;fill-opacity:1;stroke:#52bc7a;stroke-width:0;stroke-miterlimit:4;stroke-dasharray:none;stroke-opacity:1"
         d="m 502.73836,860.3445 c 5.71029,15.40534 16.23433,28.66321 29.8378,37.95086 15.81624,10.79838 63.76776,10.12213 72.46326,17.94787 7.67538,6.90764 -20.18977,16.36906 -23.74847,17.26285 -30.45941,7.65008 -48.04952,2.74373 -73.83335,-6.98733"
         id="path20319" />
      <path
         style="fill:#19e97e;fill-opacity:1;stroke:#52bc7a;stroke-width:0;stroke-miterlimit:4;stroke-dasharray:none;stroke-opacity:1"
         d="m 482.03458,756.63046 c 4.89201,9.98968 9.83065,23.10336 19.63814,29.59343 20.44536,13.52965 44.70585,27.02073 67.59178,35.75876 9.69481,3.70154 24.01044,0.24209 24.20517,1.64406 3.95057,28.44345 -68.92734,48.45444 -89.05674,39.73195"
         id="path20321" />
      <path
         style="fill:#19e97e;fill-opacity:1;stroke:#52bc7a;stroke-width:0;stroke-miterlimit:4;stroke-dasharray:none;stroke-opacity:1"
         d="m 348.83005,722.9268 c -101.63354,-7.8083 -19.07802,45.44502 19.94262,26.85333 18.34521,-8.74072 -5.01364,-30.37221 -19.94262,-26.85333 z"
         id="path27491" />
      <path
         style="fill:#12bf6c;fill-opacity:1;stroke:#52bc7a;stroke-width:0;stroke-miterlimit:4;stroke-dasharray:none;stroke-opacity:1"
         d="m 547.26741,628.0745 c -30.30294,-0.26064 -27.72828,42.13079 -36.81478,64.32722 -5.43097,13.26676 -10.91772,26.49249 -16.46976,39.81701 -0.19021,0.45648 -2.10701,4.08908 -1.29175,4.65016 10.80892,7.43886 25.78113,-5.29601 33.80071,-0.4844 4.41584,2.64946 11.28072,28.20712 19.26854,34.9731 18.17894,15.39822 -2.6081,-18.43971 25.18905,3.00323 3.66731,2.82898 7.26525,7.3469 11.30276,9.49407 8.83859,4.70038 50.53121,10.36254 49.4093,-3.10012 -0.60897,-7.30726 -43.78402,-55.63055 -50.80868,-71.78686 -9.62356,-22.13361 -11.12081,-68.76288 -33.58539,-80.89341 z"
         id="path85117" />
      <path
         style="fill:#19e97e;fill-opacity:1;stroke:#52bc7a;stroke-width:0;stroke-miterlimit:4;stroke-dasharray:none;stroke-opacity:1"
         d="m 477.31531,737.99755 c -4.77864,12.70079 120.80015,27.73124 95.90725,6.30229 -21.66051,-18.64638 -48.72863,-12.25378 -62.7203,-42.33505"
         id="path27493" />
      <path
         style="fill:#19e97e;fill-opacity:1;stroke:#52bc7a;stroke-width:0;stroke-miterlimit:4;stroke-dasharray:none;stroke-opacity:1"
         d="m 498.62806,736.76448 c 0.42455,10.39485 -1.79938,21.27187 -0.15225,31.64856 2.96567,18.68318 30.44675,46.40053 30.44675,55.4877 0,8.67852 -37.78317,-9.19176 -40.34195,-11.09755 -29.28895,-21.81463 -14.7805,-59.28029 10.04745,-76.03871 z"
         id="path27495" />
      <path
         style="fill:#19e97e;fill-opacity:1;stroke:#52bc7a;stroke-width:0;stroke-miterlimit:4;stroke-dasharray:none;stroke-opacity:1"
         d="m 502.73836,727.72206 c 0.54205,9.43149 -0.19693,6.94324 2.89245,16.30378 8.14528,24.67959 21.81976,42.45956 41.40755,58.91286 2.5744,2.16244 28.67486,16.78596 23.13954,23.42814 -22.85786,27.42872 -74.40973,-21.20045 -78.5526,-43.15708 -4.10408,-21.75108 7.08769,-36.16651 11.11306,-55.4877 z"
         id="path27503" />
      <path
         style="fill:#042e18;fill-opacity:1;stroke:#52bc7a;stroke-width:0;stroke-miterlimit:4;stroke-dasharray:none;stroke-opacity:1"
         d="m 644.87229,996.406 c 16.33549,4.0454 23.95313,15.9837 37.46064,21.7976 3.07702,1.3244 17.41411,32.5292 25.72726,40.0108 0.2935,0.2641 2.90806,3.3025 3.65996,2.3251 7.04873,-9.1632 13.03229,-89.70293 6.02816,-96.00647 -0.91329,-0.82193 -7.10057,3.63778 -7.7505,3.972 -21.47715,11.04511 -42.0107,21.10007 -65.12552,27.90097 z"
         id="path87927" />
      <path
         style="fill:#19e97e;fill-opacity:1;stroke:#52bc7a;stroke-width:0;stroke-miterlimit:4;stroke-dasharray:none;stroke-opacity:1"
         d="m 529.68374,922.27153 c 17.20807,20.67711 33.06561,43.5434 53.58627,61.24199 15.13036,13.04959 33.28617,23.30498 50.38936,33.56658 134.24728,80.5463 -121.04319,41.5069 -122.24368,-53.56956 -0.26067,-20.64438 0.94056,-30.73672 18.26805,-41.23901 z"
         id="path27511" />
      <path
         style="fill:#19e97e;fill-opacity:1;stroke:#52bc7a;stroke-width:0;stroke-miterlimit:4;stroke-dasharray:none;stroke-opacity:1"
         d="m 280.02039,1037.9052 c -9.05237,2.4759 -62.02809,38.4792 -57.69658,43.1571 11.97116,12.9285 39.54544,-1.1554 51.30277,-7.1244 1.42713,-0.7245 23.13953,-9.185 23.13953,-4.9322 0,13.2612 -13.1676,19.0384 -14.46221,30.6895 -2.83151,25.483 75.41041,-40.4772 85.85983,-41.924 0.19947,-0.028 5.59682,15.7222 6.69828,17.3998 8.59983,13.0978 29.74176,33.6797 45.36567,36.8548 29.42687,5.9801 15.15493,-32.7789 35.16598,-40.965 21.29263,-8.7104 52.0877,4.2333 73.83338,4.9322 20.23679,0.6505 92.4375,40.3394 105.95467,20.688 11.15671,-16.2197 -63.45756,-40.3509 -77.94368,-47.1303 -12.65145,-5.9207 -47.59704,-26.0732 -57.69658,-29.3194 -47.29289,-15.2009 -106.38787,8.6592 -153.60385,11.2346 -16.25034,0.8863 -52.7023,-2.4114 -65.91721,6.4393 z"
         id="path52738" />
      <path
         style="fill:#14d38d;fill-opacity:1;stroke:#52bc7a;stroke-width:0;stroke-miterlimit:4;stroke-dasharray:none;stroke-opacity:1"
         d="m 341.02651,723.87266 c -1.94186,-17.86607 -42.57032,0.13597 -44.88818,6.39397 -9.33574,25.20585 72.33269,5.13226 75.78244,6.6846 10.22193,4.59975 -9.441,28.84164 1.61469,32.93864 16.72067,6.19633 20.89198,-18.36529 33.58539,-22.28202 15.18595,-4.68583 16.13742,22.47458 32.72425,24.60709 22.08956,2.84002 17.48859,-24.89774 30.57131,-24.89774 3.30303,0 5.34201,3.06861 8.93458,2.42197 7.89509,-1.42107 -1.99414,-15.59742 37.46063,-15.59742 5.55017,0 26.59804,4.7789 26.91138,-3.68136 0.32441,-8.75858 -13.22654,-14.83453 -19.16088,-19.47257 -2.92479,-2.28587 -29.35346,-27.65994 -31.00192,-26.35091 -8.87045,7.044 3.71155,20.06013 -23.78967,23.15392 -6.74301,0.75859 -19.24182,-13.09727 -24.11259,-9.68782 -9.89303,6.92494 -9.62467,21.37735 -24.54317,20.5382 -10.55534,-0.5937 -8.58364,-16.57231 -16.14683,-20.73195 -6.42618,-3.53431 -16.35276,3.65487 -23.78964,2.42197 -5.94768,-0.98605 -8.06127,-11.32854 -15.82391,-8.04093 -6.10047,2.58368 -10.13571,7.27509 -15.50093,10.17225 -11.9143,6.43353 -21.36064,6.56799 -8.82695,21.41011 z"
         id="path59703" />
      <path
         style="fill:#14d38d;fill-opacity:1;stroke:#52bc7a;stroke-width:0;stroke-miterlimit:4;stroke-dasharray:none;stroke-opacity:1"
         d="m 337.41788,785.52013 c -1.07474,-5.21767 -4.61801,-9.98818 -9.47282,-5.61896 -19.65913,17.69274 -46.67462,27.97641 -72.23013,34.87621 -2.116,0.57131 -18.6833,8.46238 -15.50095,12.40044 17.08096,21.13711 88.2672,-8.29016 111.73604,-6.78148 16.44374,1.05706 -12.94429,39.56206 -7.10462,45.43594 16.76418,16.86232 45.35553,-13.51243 54.46863,-24.99461 4.99115,-6.28869 3.26988,41.69299 22.06733,25.18836 8.91122,-7.82428 1.00981,-33.07704 11.51808,-38.75135 1.78435,-0.96353 9.23198,17.90094 9.68809,19.08506 5.9762,15.51472 17.49526,32.95756 36.16889,32.35735 11.53141,-0.37063 -8.81986,-36.77489 -1.61467,-46.50161 0.88275,-1.1917 31.68586,10.73476 45.10346,9.0097 5.56898,-0.71599 7.55912,-2.83519 6.67401,-8.33154 -1.57842,-9.80173 -17.2952,-12.5807 -13.77863,-24.6071 1.75655,-6.0072 10.78754,2.20718 12.59454,3.87512 3.43622,3.17182 40.69927,19.83922 43.70406,13.07859 1.7938,-4.03593 -37.03661,-33.45304 -43.05818,-43.20776 -26.10782,-42.29351 -38.00761,19.66238 -51.77751,13.4661 -4.13109,-1.85893 -3.9792,-8.53638 -8.61163,-9.20345 -10.54642,-1.51863 -13.96688,11.39204 -25.40434,10.26912 -11.27125,-1.10662 -36.32454,-10.99646 -44.99583,-9.88161 -8.57586,1.1026 -14.65712,7.5112 -24.54317,7.16902 -14.7601,-0.51094 -19.97015,-12.50757 -35.63065,-8.33154 z"
         id="path59705" />
      <path
         style="fill:#14d38d;fill-opacity:1;stroke:#52bc7a;stroke-width:0;stroke-miterlimit:4;stroke-dasharray:none;stroke-opacity:1"
         d="m 301.14134,869.31988 c -14.30428,-6.53571 -15.44815,3.682 -25.29671,9.59096 -6.21109,3.72658 -15.01332,5.27982 -20.02206,10.75352 -5.29475,5.78625 -15.13687,5.24512 -20.23735,10.75348 -7.35162,7.93954 23.41395,2.10696 34.87715,0.38751 16.67447,-2.5011 52.92704,-18.94395 68.24723,-5.81268 14.60773,12.52056 -10.84042,75.12042 -6.78166,77.50267 3.00162,1.76176 10.51544,1.7969 13.4557,1.16256 35.04964,-7.5619 23.63512,-36.87099 40.04413,-57.54577 5.06791,-6.3854 10.22935,30.31625 19.59147,31.38861 19.62671,2.24808 15.42957,-21.95976 21.42146,-32.74489 0.73824,-1.32881 5.23266,9.62314 11.30279,16.17869 8.78501,9.48754 18.11536,17.69817 31.32484,19.95694 5.6475,0.9657 20.81249,3.88326 24.8661,-2.90637 4.39417,-7.36002 -0.55864,-21.47731 -2.69113,-28.86974 -0.99984,-3.46602 -4.46498,-13.49513 -2.36821,-10.55974 3.23837,4.53359 7.06123,9.88087 11.94866,12.69106 10.69533,6.14966 10.05327,-13.85599 17.33093,-10.75349 4.77927,2.03743 45.58371,11.23829 46.07226,-0.19375 0.15364,-3.59466 -1.20666,-4.22693 -4.52109,-5.61896 -18.25721,-7.66781 -29.22543,-28.53052 -46.17993,-37.00753 -6.42892,-3.21437 -11.67085,22.89596 -21.95967,25.76965 -8.34766,2.33151 -18.24731,-0.58156 -26.4808,-2.22822 -1.98541,-0.39706 -3.56875,9.24976 -6.99696,6.78151 -5.83052,-4.19785 -10.52081,-19.58811 -18.08445,-20.34447 -14.73793,-1.47376 -16.04704,19.36623 -27.77255,18.4069 -4.83201,-0.39534 -11.92757,-12.39774 -19.48384,-13.36921 -5.29809,-0.68117 -18.96128,11.73755 -37.46063,8.13776 -17.73105,-3.45027 -35.1246,-36.68022 -54.14568,-21.507 z"
         id="path59707" />
      <path
         style="fill:#14d38d;fill-opacity:1;stroke:#52bc7a;stroke-width:0;stroke-miterlimit:4;stroke-dasharray:none;stroke-opacity:1"
         d="m 286.28625,964.84195 c -6.85551,1.78502 -11.60862,6.34373 -16.36212,11.33478 -11.27706,11.84061 -22.38843,24.50347 -36.70711,32.84177 -2.80696,1.6346 -17.58182,7.9709 -13.56333,12.0129 14.94648,15.034 39.67063,-8.5372 52.7463,0.1938 11.3311,7.566 -7.23931,25.9845 -1.3994,26.6415 20.35251,2.2896 35.66284,-14.338 55.22214,-14.338 12.05859,0 -13.50629,23.7346 7.31991,19.5694 17.38918,-3.4777 20.88549,-39.1318 40.36705,-37.8794 19.6641,1.2641 19.71339,41.3659 35.41538,46.211 13.9455,4.303 11.15515,-23.3201 34.12363,-27.6103 10.49139,-1.9597 28.73063,-3.2065 39.50589,-0.872 13.95566,3.0237 54.84019,28.412 65.23318,23.7352 4.78956,-2.1552 -2.43226,-22.5321 -3.33701,-25.6727 -1.8733,-6.5029 5.64899,-9.8294 11.19513,-10.8504 4.43352,-0.8162 13.27936,9.565 18.19209,11.2379 13.30807,4.5318 35.54796,2.422 49.83988,2.422 6.73772,0 17.8889,-6.0149 13.34804,-15.21 -2.96711,-6.0082 -44.32898,-29.78112 -51.66984,-33.71362 -15.85606,-8.49407 -26.37113,-36.13525 -40.36708,-38.65446 -6.42364,-1.15623 -5.65738,21.0865 -10.33397,25.57587 -18.78528,18.03339 -28.65582,-4.2269 -30.03309,-3.1001 -6.70102,5.48251 -8.58604,18.498 -18.51504,20.73196 -21.59113,4.85788 -28.76655,-19.983 -50.27043,-18.60063 -16.81253,1.08077 -12.7916,21.67019 -21.52909,30.51668 -11.38963,11.5317 -24.05597,-20.59751 -29.60254,-21.41012 -12.42597,-1.82049 -22.73424,16.55762 -35.30772,20.24762 -42.70592,12.5329 -25.51488,-9.79502 -37.99885,-21.89455 -7.8047,-7.56433 -17.91676,-6.30507 -25.512,-13.4661 z"
         id="path59709" />
      <path
         style="fill:#5aef72;fill-opacity:1;stroke:#52bc7a;stroke-width:0;stroke-miterlimit:4;stroke-dasharray:none;stroke-opacity:1"
         d="m 437.95878,540.03037 c -12.8842,-1.67799 -16.8937,28.8104 -19.26855,40.10763 -3.50996,16.6969 -6.70697,34.1163 -11.51808,50.47364 -1.4215,4.83296 -10.29033,16.69441 -9.14987,21.31322 0.9648,3.90734 16.99953,0.66331 19.91442,-0.29062 11.08972,-3.62926 11.53941,11.51763 20.5603,13.46607 8.52963,1.84235 6.86808,-10.70186 13.67099,-11.72228 6.42511,-0.96375 23.79348,3.28676 27.2343,-3.1001 7.52737,-13.97233 -14.95052,-43.77044 -19.80676,-56.67383 -4.12673,-10.96496 -5.5499,-53.57373 -21.63675,-53.57373 z"
         id="path61132" />
      <path
         style="fill:#5aef72;fill-opacity:1;stroke:#52bc7a;stroke-width:0;stroke-miterlimit:4;stroke-dasharray:none;stroke-opacity:1"
         d="m 390.37945,686.41356 c -20.44856,-7.52488 -117.23415,36.42627 -35.20006,36.42627 9.79664,0 21.08292,-4.29932 30.46367,-2.80948 8.57576,1.362 -1.03343,17.74926 5.27463,19.08503 7.00754,1.48392 12.63541,-4.82277 19.37618,-5.32831 10.03369,-0.7525 14.72533,11.08665 24.97375,9.59096 7.46647,-1.08966 8.3493,-9.927 14.6398,-13.27234 4.41931,-2.35019 12.43004,2.65152 17.43858,0 11.06829,-5.85952 20.08425,-12.87778 32.83188,-15.98491 6.93486,-1.69034 20.00369,1.10109 21.3138,-8.33154 1.9712,-14.19215 -25.54385,-26.13147 -34.55421,-33.6168 -4.73639,-3.93475 -15.05715,13.62792 -18.51502,16.46934 -7.49249,6.15669 -70.20057,4.00907 -78.043,-2.22822 z"
         id="path61148" />
      <path
         style="fill:#5aef72;fill-opacity:1;stroke:#52bc7a;stroke-width:0;stroke-miterlimit:4;stroke-dasharray:none;stroke-opacity:1"
         d="m 332.68147,766.04756 c 25.7842,7.09509 41.16898,27.23862 72.76835,17.14749 8.14988,-2.60263 11.4131,5.14844 19.05326,3.87511 7.42929,-1.23817 14.49321,-0.8132 21.9597,-1.45317 5.82459,-0.49924 13.54362,-5.92275 19.91442,-6.87835 3.71276,-0.55692 7.08842,4.22074 10.33396,2.90635 16.61917,-6.73058 25.50695,-27.66254 45.85698,-12.40044 5.38461,4.03836 32.27554,25.44162 29.27958,29.9354 -7.76631,11.64918 -31.95214,-7.59745 -42.95055,-3.29385 -7.61966,2.98151 -3.57857,20.54834 -14.10158,24.6071 -9.59514,3.70089 -19.69857,-4.90635 -28.95663,-2.22819 -13.74926,3.97735 1.23457,20.02295 -15.28567,18.40688 -10.55751,-1.03278 -10.82392,-16.27555 -25.08139,-16.27555 -4.71942,0 -6.88925,2.37765 -8.28871,7.0721 -0.1982,0.66482 -0.78504,5.56342 -1.3994,5.4252 -5.2182,-1.17406 -6.21541,-13.90592 -14.10155,-12.40044 -9.73678,1.8588 -14.02834,18.74015 -24.75847,19.08503 -8.26376,0.26562 -2.72261,-18.3788 -4.19817,-21.60386 -1.50138,-3.2815 -16.14077,-13.44129 -19.80679,-14.24112 -12.70291,-2.77146 -74.04563,12.34265 -77.07418,4.16576 -1.21875,-3.29057 -0.95708,-7.54489 2.15292,-9.68783 17.21411,-11.86127 38.01218,-18.69048 54.68392,-32.16362 z"
         id="path61267" />
      <path
         style="fill:#5aef72;fill-opacity:1;stroke:#52bc7a;stroke-width:0;stroke-miterlimit:4;stroke-dasharray:none;stroke-opacity:1"
         d="m 288.76209,956.31666 c -6.4431,-1.09969 -10.87845,1.73368 -15.07037,6.39397 -12.4716,13.86512 -28.26992,24.67213 -42.8429,36.03876 -6.06062,4.72711 -10.32469,9.87201 -15.6086,15.30681 -0.98742,1.0156 -4.32292,3.1001 -2.90643,3.1001 22.07817,0 40.9111,-17.41385 64.47967,-13.7567 23.93111,3.7133 5.32971,15.051 14.96271,20.1506 13.57053,7.1842 25.24998,-4.3632 38.53709,-5.8127 5.17126,-0.5641 4.97719,6.9898 11.19513,5.0377 12.41415,-3.8973 24.32249,-25.5003 40.79767,-19.5694 13.55291,4.8789 21.24228,26.5091 33.37009,25.9634 9.6207,-0.4329 14.10518,-7.8222 22.60555,-10.8504 1.66471,-0.593 47.61765,-7.2811 50.59339,-7.4596 11.62299,-0.6974 28.90062,18.3006 39.82884,11.4316 8.39856,-5.2789 6.57466,-19.3263 19.26855,-19.5694 5.94865,-0.1139 30.8593,-1.0832 34.66187,0.097 12.49746,3.8784 58.49268,26.8568 48.00989,6.8783 -6.75693,-12.8775 -32.88443,-21.63227 -44.4576,-29.83851 -9.15836,-6.49393 -33.16306,-41.57342 -49.30163,-37.1044 -7.97198,2.20758 -10.33982,13.58805 -16.68508,18.69752 -7.80785,6.28722 -12.62261,-1.49241 -20.56029,0.38751 -8.50175,2.01353 -11.81952,14.43411 -20.34498,16.27558 -15.97581,3.45067 -32.55955,-17.6262 -49.194,-13.17546 -10.34363,2.76755 -15.18537,19.00259 -24.65084,23.73519 -6.66734,3.33359 -19.71582,-10.69337 -29.71014,-9.49407 -17.00607,2.04065 -31.63779,17.63956 -49.51695,12.9817 -6.41266,-1.67063 -13.38324,-17.56216 -18.51502,-22.08829 -5.95952,-5.25615 -12.47306,-9.18797 -18.94562,-13.75671 z"
         id="path61392" />
      <path
         style="fill:#5aef72;fill-opacity:1;stroke:#52bc7a;stroke-width:0;stroke-miterlimit:4;stroke-dasharray:none;stroke-opacity:1"
         d="m 313.08997,861.95714 c -19.91902,-0.78087 -37.55114,10.84612 -54.36097,20.63509 -0.28531,0.16616 -19.55708,10.38921 -17.43857,11.81915 22.38571,15.10996 65.86158,-15.1466 92.14455,-13.17546 38.56339,2.89219 13.04263,37.71085 24.54317,48.92358 5.30601,5.17321 14.34076,-34.89775 31.75542,-30.41981 8.29271,2.13236 7.50814,18.7829 15.28567,18.11626 6.88515,-0.59013 11.12105,-29.88508 33.90834,-16.75995 2.73841,1.57728 3.04435,7.23802 5.27463,8.0409 11.04669,3.97671 25.65394,19.83845 27.77254,18.50376 5.28516,-3.32957 0.93221,-15.06651 6.78167,-20.05382 7.90694,-6.74153 13.5215,0.3566 21.3138,-1.45318 4.23487,-0.98353 3.84667,-6.00604 6.88933,-8.4284 8.59176,-6.84017 24.56174,0.0993 34.33892,1.3563 4.46849,0.57449 13.46708,8.60621 17.33092,3.19699 2.21234,-3.09719 -45.72209,-39.78796 -48.22518,-39.13886 -15.24664,3.95367 -18.08689,21.40122 -31.32484,25.76962 -19.36509,6.39033 -27.73378,-16.08179 -46.71817,-16.08179 -9.55167,0 -14.09906,10.77602 -23.03613,12.69105 -8.46905,1.81475 -18.63154,-2.45721 -27.55725,-2.03443 -9.0342,0.42791 -20.65272,5.87211 -28.95664,4.55329 -16.81975,-2.67131 -22.21875,-30.67058 -39.72121,-26.06029 z"
         id="path61394" />
      <path
         style="fill:#5aef72;fill-opacity:1;stroke:#52bc7a;stroke-width:0;stroke-miterlimit:4;stroke-dasharray:none;stroke-opacity:1"
         d="m 331.77231,875.23676 c 0.70591,0.0566 -1.81187,-1.81533 -1.10368,-1.81533 0.83756,0 -1.74858,-0.022 1.10368,1.81533 0.79018,0.50903 4.18243,1.28564 5.36625,1.54133 8.01367,1.73091 17.37524,1.9181 25.57526,1.9181 9.12254,0 17.86141,-0.30359 26.5648,-2.67163 2.25174,-0.61267 5.53244,-1.2749 7.84003,-0.54803 2.22554,0.70101 4.26014,2.828 6.39381,3.87043 4.18637,2.04528 14.75635,4.97144 5.44235,9.41922 -4.90871,2.3441 -9.62903,-0.21262 -14.65249,0.58227 -4.48355,0.70948 -8.05352,1.81977 -12.67346,2.19209 -6.03637,0.48652 -8.90363,4.62984 -14.11968,6.09682 -10.0856,2.8365 -17.52946,-5.58538 -25.11856,-10.61802 -4.31549,-2.86178 -14.68866,-5.39543 -10.61831,-11.78258 z"
         id="path61396" />
      <path
         style="fill:#0e964b;fill-opacity:1;stroke:#52bc7a;stroke-width:0;stroke-miterlimit:4;stroke-dasharray:none;stroke-opacity:1"
         d="m 1.1496056,522.58355 c 19.4541444,14.645 26.7223864,42.19003 39.8852404,63.02308 9.184782,14.5369 70.876214,57.80305 71.397614,63.4341 1.75396,18.94218 -58.105948,4.81187 -66.678369,21.09904 -6.406279,12.1716 2.852423,85.76079 -25.879734,69.59938 C 9.8998636,734.12866 2.8176046,558.30089 1.4540726,549.71088 0.09358656,541.14005 0.75595756,531.08612 1.1496056,522.58355 Z"
         id="path91242" />
      <path
         style="fill:#042e18;fill-opacity:1;stroke:#52bc7a;stroke-width:0;stroke-miterlimit:4;stroke-dasharray:none;stroke-opacity:1"
         d="m 634.75568,752.61654 c 7.5039,2.12426 14.77555,4.9489 22.07389,7.67236 7.95817,2.96969 15.48112,13.61184 24.96635,11.78259 14.3895,-2.77506 32.99886,-44.37981 18.57251,-48.08935 -25.61434,-6.58637 -41.94027,24.37347 -65.61275,28.6344 z"
         id="path94360" />
      <path
         style="fill:#075310;fill-opacity:1;stroke:#52bc7a;stroke-width:0;stroke-miterlimit:4;stroke-dasharray:none;stroke-opacity:1"
         d="m 698.3894,732.21205 c -78.62353,-0.5796 -13.8194,-54.33185 4.71924,-86.58823 5.48229,-9.53895 13.90171,-18.0272 14.0055,-17.53685 3.88795,18.37005 -9.11701,46.19051 -11.11305,65.35219 -1.45227,13.94124 0.17838,27.02491 -7.61169,38.77289 z"
         id="path94887" />
      <path
         style="fill:#f9f9f9;fill-opacity:1;stroke:#52bc7a;stroke-width:0;stroke-miterlimit:4;stroke-dasharray:none;stroke-opacity:1"
         d="m 45.915598,40.471013 c 12.156072,0.795554 122.821022,15.786774 124.222732,28.086372 1.30548,11.455355 -33.76181,22.642753 -25.57527,33.977655 14.12316,19.55462 132.48371,10.76541 153.75607,9.86448 17.54074,-0.74288 153.40301,-14.561296 138.83717,14.93373 -18.79174,38.05228 -117.45563,38.9099 -153.45161,38.9099 -10.8762,0 -68.2912,-7.1426 -67.43954,2.0551 1.05878,11.43458 139.31331,23.84671 133.50899,37.95085 -6.76421,16.43655 -63.45293,33.90316 -79.92272,29.45644 -7.68305,-2.07437 -13.74113,-11.21087 -21.61719,-14.24869 -12.97922,-5.00614 -91.46667,-0.0172 -99.40863,8.08339 -23.32475,23.7906 56.43391,1.05586 49.01927,22.74311 -2.27761,6.66184 -24.29443,9.05365 -30.75122,9.86448 -19.32866,2.42726 -79.750563,-7.20501 -88.295564,-4.24721 -10.490999,3.63141 -41.717309,9.07372 -51.759471,3.42517 C 3.5913676,248.13707 10.150275,37.647512 45.915598,40.471013 Z"
         id="path100949" />
      <path
         style="fill:#f9f9f9;fill-opacity:1;stroke:#52bc7a;stroke-width:0;stroke-miterlimit:4;stroke-dasharray:none;stroke-opacity:1"
         d="m 683.31825,288.04208 c -8.265,-5.7408 -15.71797,-6.23808 -25.11856,-2.87713 -19.08963,6.82501 -25.18809,27.82303 -41.55982,37.12882 -4.79277,2.72423 -11.82712,2.42544 -17.05018,4.65823 -4.05865,1.73503 -37.09767,10.44601 -36.23161,13.56365 7.39267,26.61293 53.56897,-10.31179 61.80687,6.98735 6.18051,12.97869 -31.86946,24.66121 -40.49416,24.66121 -12.91296,0 -21.59934,1.67 -33.79589,6.71332 -31.33174,12.95575 -70.05849,6.24023 -102.75776,16.71482 -2.82345,0.90442 -26.38393,5.0437 -22.22614,12.33059 14.21651,24.91565 76.3288,19.21348 100.01755,18.2219 8.50707,-0.3561 17.06195,0.0951 25.57529,-0.13702 1.06524,-0.0291 3.98899,-0.71284 3.19691,0 -8.50696,7.65606 -12.14215,12.0151 -23.59623,14.79674 -1.66407,0.4041 -15.73284,0.9892 -14.46221,3.56216 4.91517,9.95294 23.02907,-0.74951 26.6409,3.15116 3.19662,3.45224 -5.20054,8.49112 2.89245,10.5495 19.12197,4.86352 63.39819,4.80594 78.70484,11.23455 10.91951,4.58608 -2.10672,13.64671 6.54605,20.96204 12.82547,10.84307 29.77185,4.31599 43.84331,10.27549 6.18337,2.61876 8.86257,10.10605 15.52784,11.91958 13.04616,3.54968 15.01386,-33.3457 15.3756,-41.37601 1.58285,-35.13791 0.22307,-70.49887 -2.58797,-105.49515 -0.26532,-3.3034 -12.91119,-84.55495 -18.87699,-65.76321"
         id="path101050" />
      <path
         style="fill:#b5ffff;fill-opacity:0.909804;stroke:#52bc7a;stroke-width:0;stroke-miterlimit:4;stroke-dasharray:none;stroke-opacity:1"
         d="m 589.54227,1126.0968 c -11.77739,-3.2331 -32.64185,-14.4388 -45.06118,-6.9874 -33.29914,19.979 -96.42216,47.9143 -137.31484,41.6501 -11.08008,-1.6974 -30.54085,-26.6218 -59.37115,-28.2234 -26.21422,-1.4563 -40.78361,19.3843 -58.91445,15.6187 -8.36903,-1.7381 -41.19983,-12.9157 -45.5179,-20.688 -1.43884,-2.5898 2.34534,-9.0595 1.21787,-10.4125 -4.62817,-5.5536 -23.5485,1.1104 -30.44674,-0.959 -10.81269,-3.2437 -15.59633,-17.0118 -28.77218,-17.9479 -3.58583,-0.2548 -49.53052,10.5822 -53.58627,13.0156 -19.60759,11.7643 -81.102846,41.2345 -79.161548,69.1884 2.641195,38.0322 84.953488,24.575 105.802448,33.0186 40.93332,16.5776 158.75579,9.3921 210.84373,10.8235 25.53264,0.7017 45.43663,18.1609 71.54984,18.907 34.98906,0.9996 66.21719,-14.6896 100.01758,-14.2487 40.30411,0.5257 110.05323,8.5584 135.64026,-34.5257 17.05229,-28.7131 -39.49967,-38.5976 -54.19521,-47.1303 -6.70568,-3.8935 -6.18577,-13.4433 -12.78763,-17.2628 -6.47917,-3.7486 -13.03758,-1.1343 -19.94263,-3.8362 z"
         id="path103006" />
      <path
         style="fill:#b200ff;fill-opacity:0.126759;stroke:#52bc7a;stroke-width:0;stroke-miterlimit:4;stroke-dasharray:none;stroke-opacity:1"
         d="m 189.16754,1123.7676 c -17.9607,-32.9098 -119.86271,35.5722 -112.652962,47.4044 8.561422,14.0504 36.419522,13.1963 50.998302,15.0707 29.36676,3.7756 64.18441,15.7364 93.62375,12.0566 35.9723,-4.4964 76.90596,-8.3901 113.26191,-5.6173 11.59237,0.8841 22.57303,7.132 33.9481,9.1795 6.22927,1.1212 17.54402,-2.2428 22.68284,0.959 5.3803,3.3522 8.56001,8.9905 15.22338,10.2755 7.07308,1.3641 14.60556,-0.3954 21.61717,1.2331 6.05682,1.4067 9.26783,8.826 15.52784,9.7274 13.55492,1.9519 33.07062,-8.251 45.06119,-13.5636 14.98367,-6.6387 139.50114,-3.8646 126.50623,-36.4438 -5.8266,-14.6078 -66.10233,-37.799 -81.90174,-30.6895 -32.68557,14.7081 -79.64686,40.3469 -116.61103,36.7178 -21.90028,-2.1502 -42.78715,-22.426 -64.39487,-24.9352 -30.59615,-3.553 -61.56386,19.5344 -94.08046,9.1794 -3.90447,-1.2434 -43.73603,-19.8192 -47.19246,-21.9211 -8.90256,-5.4135 -12.4344,-13.7136 -21.61719,-18.6329 z"
         id="path106648" />
      <path
         style="fill:#eeffff;fill-opacity:0.909804;stroke:#52bc7a;stroke-width:0;stroke-miterlimit:4;stroke-dasharray:none;stroke-opacity:1"
         d="m 583.90961,1156.1012 c -28.50925,-32.9479 -23.99781,5.9744 -37.14501,7.9464 -6.18255,0.9274 -72.90387,4.8945 -65.00381,20.003 0.51067,0.9766 143.69732,10.4459 146.90555,0.959 4.12544,-12.1992 -35.19246,-22.3502 -44.75673,-28.9084 z"
         id="path103668" />
      <path
         style="fill:#eeffff;fill-opacity:0.909804;stroke:#52bc7a;stroke-width:0;stroke-miterlimit:4;stroke-dasharray:none;stroke-opacity:1"
         d="m 126.14278,1135.9612 c 7.06069,-8.1541 19.70989,-15.9109 31.36015,-13.2896 12.93855,2.9111 7.76585,13.4737 16.89794,19.866 9.05749,6.34 21.93686,5.3965 31.36015,11.3715 5.93767,3.7649 5.70168,11.9679 12.6354,14.6597 6.66801,2.5887 14.01065,2.0551 21.00826,2.0551 7.63639,0 59.42838,-6.3674 57.69658,4.9323 -1.37536,8.9739 -22.20294,16.5316 -29.68557,17.1258 -27.23888,2.163 -52.65236,-14.3566 -78.09591,-19.3179 -25.61593,-4.995 -53.63536,4.6255 -78.70485,-4.5213 -19.377875,-7.0701 6.10506,-30.3375 15.52785,-32.8816 z"
         id="path103670" />
    </g>
  </g>
</svg>
