<?xml version="1.0" encoding="UTF-8" standalone="no"?>
<!-- Created with Inkscape (http://www.inkscape.org/) -->

<svg
   width="200"
   height="200"
   viewBox="0 0 52.916665 52.916668"
   version="1.1"
   id="svg5"
   inkscape:version="1.1.1 (3bf5ae0d25, 2021-09-20)"
   sodipodi:docname="LightBulb.svg"
   xmlns:inkscape="http://www.inkscape.org/namespaces/inkscape"
   xmlns:sodipodi="http://sodipodi.sourceforge.net/DTD/sodipodi-0.dtd"
   xmlns="http://www.w3.org/2000/svg"
   xmlns:svg="http://www.w3.org/2000/svg">
  <sodipodi:namedview
     id="namedview7"
     pagecolor="#505050"
     bordercolor="#eeeeee"
     borderopacity="1"
     inkscape:pageshadow="0"
     inkscape:pageopacity="0"
     inkscape:pagecheckerboard="0"
     inkscape:document-units="mm"
     showgrid="false"
     units="px"
     inkscape:snap-global="false"
     inkscape:zoom="2.7865881"
     inkscape:cx="106.94081"
     inkscape:cy="86.12683"
     inkscape:window-width="1920"
     inkscape:window-height="986"
     inkscape:window-x="-11"
     inkscape:window-y="-11"
     inkscape:window-maximized="1"
     inkscape:current-layer="layer1" />
  <defs
     id="defs2" />
  <g
     inkscape:label="Layer 1"
     inkscape:groupmode="layer"
     id="layer1">
    <circle
       id="path18580"
       style="fill:#2b0000;stroke:#f88585;stroke-width:0.264583"
       cx="24.401854"
       cy="24.117006"
       r="0" />
    <circle
       id="path18582"
       style="fill:#2b0000;stroke:#f88585;stroke-width:0.264583"
       cx="24.401854"
       cy="24.117006"
       r="0" />
    <g
       id="g20872">
      <path
         id="path17947"
         style="fill:#ffb044;fill-opacity:0.93978101;stroke:#000000;stroke-width:0"
         d="m 26.568127,2.9287224 c -9.465202,0 -18.6836657,16.9613546 -11.441678,22.5975876 6.590667,5.129328 7.864816,9.180352 7.471378,12.263333 0.03187,-0.07205 0.06328,-0.144169 0.09405,-0.218075 0.03896,-0.09356 0.07692,-0.188701 0.113689,-0.285252 0.03677,-0.09655 0.07238,-0.195001 0.106453,-0.294556 0.03408,-0.09956 0.06678,-0.200252 0.09767,-0.302823 0.03089,-0.102574 0.05962,-0.206521 0.08682,-0.312127 0.0272,-0.105605 0.05243,-0.212775 0.07545,-0.321429 0.02301,-0.108651 0.0442,-0.219014 0.06253,-0.330729 0.01833,-0.111712 0.03388,-0.225237 0.04703,-0.340029 0.01315,-0.114792 0.02354,-0.230931 0.03101,-0.348816 0.0075,-0.117885 0.01215,-0.237128 0.01344,-0.358119 0.0013,-0.120989 -8.13e-4,-0.243822 -0.0062,-0.367935 -0.0054,-0.124113 -0.01379,-0.249473 -0.02635,-0.376722 -0.01256,-0.127248 -0.02886,-0.25614 -0.04909,-0.38654 -0.02023,-0.1304 -0.04446,-0.262274 -0.07286,-0.39584 -0.0284,-0.133567 -0.06111,-0.268912 -0.09819,-0.40566 -0.03707,-0.136747 -0.07882,-0.275018 -0.125058,-0.414962 -0.04624,-0.139943 -0.09706,-0.281627 -0.152962,-0.42478 -0.0559,-0.143153 -0.116871,-0.287703 -0.182934,-0.434083 -0.06606,-0.146379 -0.137218,-0.294281 -0.213941,-0.4439 -0.07672,-0.149619 -0.159133,-0.301363 -0.247013,-0.454237 -0.08788,-0.152873 -0.181067,-0.306877 -0.280603,-0.46302 -0.09954,-0.156144 -0.205087,-0.313926 -0.316777,-0.473356 -0.11169,-0.15943 -0.229642,-0.320963 -0.353983,-0.483693 -0.124342,-0.162726 -0.25525,-0.326948 -0.392741,-0.492992 -0.137491,-0.166042 -0.281393,-0.333955 -0.432532,-0.503328 -0.151139,-0.169373 -0.309622,-0.339913 -0.474906,-0.51263 -0.165285,-0.172717 -0.337353,-0.347409 -0.517281,-0.523483 -0.179928,-0.176075 -0.367687,-0.353852 -0.562757,-0.5333 -0.195069,-0.179449 -0.397522,-0.360282 -0.608231,-0.54312 -0.21071,-0.182837 -0.429444,-0.36773 -0.656291,-0.553971 -0.226847,-0.18624 -0.461901,-0.374131 -0.705383,-0.56379 -0.09723,-0.07574 -0.191259,-0.153694 -0.281637,-0.234094 -0.09038,-0.0804 -0.177335,-0.16317 -0.260966,-0.248047 -0.08363,-0.08488 -0.163821,-0.171797 -0.240812,-0.260966 -0.07699,-0.08917 -0.150718,-0.18061 -0.221175,-0.273885 -0.07046,-0.09327 -0.137509,-0.188575 -0.201538,-0.285771 -0.06403,-0.09719 -0.12471,-0.196208 -0.182418,-0.297139 -0.05771,-0.100931 -0.112322,-0.203511 -0.163814,-0.307991 -0.05149,-0.104481 -0.09983,-0.211 -0.145211,-0.318844 -0.04538,-0.107844 -0.08774,-0.217123 -0.127124,-0.328146 -0.03938,-0.111022 -0.07607,-0.223949 -0.109554,-0.337963 -0.03348,-0.114015 -0.06377,-0.229411 -0.09147,-0.346232 -0.02769,-0.116822 -0.05292,-0.235058 -0.07493,-0.354501 -0.02201,-0.119443 -0.04093,-0.239856 -0.05736,-0.361735 -0.01643,-0.121879 -0.03038,-0.244841 -0.04134,-0.36897 -0.01096,-0.124129 -0.01921,-0.249493 -0.0248,-0.375687 -0.0056,-0.126194 -0.0084,-0.2533 -0.0088,-0.381372 -3.39e-4,-0.128073 0.0019,-0.257291 0.0067,-0.387057 0.0048,-0.129766 0.01236,-0.259916 0.02222,-0.39119 0.0099,-0.131274 0.02189,-0.263246 0.03669,-0.395842 0.0148,-0.132596 0.03204,-0.266243 0.05168,-0.399975 0.01963,-0.133733 0.04179,-0.267876 0.06615,-0.40256 0.02436,-0.134683 0.05112,-0.269694 0.0801,-0.405143 0.02898,-0.135449 0.06004,-0.271181 0.09353,-0.40721 0.0335,-0.136029 0.06958,-0.272338 0.107487,-0.408761 0.0379,-0.136423 0.07768,-0.273162 0.11989,-0.409794 0.04221,-0.136632 0.08692,-0.273139 0.133325,-0.409794 0.0464,-0.136655 0.09472,-0.273302 0.145211,-0.409794 0.05049,-0.136492 0.103139,-0.273134 0.157613,-0.409278 0.05447,-0.136144 0.110631,-0.271601 0.168982,-0.407211 0.05835,-0.13561 0.118746,-0.271286 0.180867,-0.406177 0.06212,-0.13489 0.125935,-0.26909 0.19172,-0.403076 0.06579,-0.133985 0.133228,-0.267597 0.202571,-0.400492 0.06934,-0.132895 0.140629,-0.265256 0.213424,-0.396875 0.07279,-0.131619 0.147102,-0.262584 0.223242,-0.392741 0.07614,-0.130157 0.154198,-0.25958 0.233578,-0.38809 0.07938,-0.12851 0.160367,-0.256245 0.242879,-0.382922 0.08251,-0.126677 0.166642,-0.252063 0.252181,-0.376722 0.08554,-0.124658 0.172507,-0.248582 0.260966,-0.371036 0.08846,-0.122454 0.178478,-0.243738 0.269751,-0.363802 0.09127,-0.120064 0.183522,-0.238562 0.277502,-0.356051 0.09398,-0.117489 0.189706,-0.233571 0.286288,-0.348299 0.09658,-0.1147277 0.194445,-0.2282487 0.293522,-0.3400307 0.09908,-0.111781 0.199291,-0.22208 0.300757,-0.330729 0.101466,-0.108649 0.203726,-0.215579 0.307474,-0.320911 0.103749,-0.105331 0.208785,-0.208747 0.31471,-0.310575 0.105924,-0.101828 0.212916,-0.202101 0.320911,-0.30024 0.107994,-0.09814 0.217153,-0.194607 0.327111,-0.288871 0.109959,-0.09426 0.220981,-0.186265 0.332796,-0.276469 0.111816,-0.0902 0.224398,-0.178625 0.337964,-0.264583 0.113567,-0.08596 0.22792,-0.169621 0.343132,-0.251148 0.115212,-0.08153 0.231032,-0.160801 0.347782,-0.237711 0.116751,-0.07691 0.234251,-0.151135 0.352433,-0.223242 0.118183,-0.07211 0.237059,-0.142171 0.356568,-0.20929 0.119508,-0.06712 0.239973,-0.131324 0.360701,-0.19327 0.120729,-0.06195 0.241961,-0.121698 0.363803,-0.178284 0.121841,-0.05659 0.244054,-0.110189 0.366902,-0.16123 0.122849,-0.05104 0.246254,-0.09938 0.370003,-0.144694 0.12375,-0.04531 0.248044,-0.08773 0.372587,-0.127124 0.124545,-0.03939 0.249422,-0.07574 0.374655,-0.109037 0.125232,-0.03329 0.250907,-0.06343 0.376721,-0.09043 0.125814,-0.02701 0.251465,-0.05078 0.377754,-0.07131 0.12629,-0.02053 0.253163,-0.0378 0.379822,-0.05168 0.126659,-0.01387 0.253415,-0.02449 0.380339,-0.03152 0.126923,-0.007 0.253777,-0.01033 0.380854,-0.01033 0.127079,0 0.253939,0.0042 0.380857,0.0124 0.126918,0.0082 0.254212,0.0201 0.380855,0.03617 0.126645,0.01608 0.253047,0.03618 0.379304,0.05994 0.126259,0.02377 0.251999,0.05094 0.377756,0.08217 0.125756,0.03122 0.251576,0.06646 0.376721,0.104903 0.125143,0.03845 0.24972,0.08014 0.374137,0.125573 0.124418,0.04544 0.248492,0.09456 0.372071,0.146762 0.123576,0.0522 0.246861,0.107674 0.369485,0.166398 0.122626,0.05872 0.244827,0.120501 0.366387,0.185518 0.12156,0.06502 0.242387,0.133044 0.362767,0.204122 0.120381,0.07108 0.240065,0.145301 0.359154,0.222209 0.119086,0.07691 0.237331,0.156758 0.355015,0.239262 0.117684,0.0825 0.234717,0.167931 0.350883,0.255798 0.116165,0.08787 0.231698,0.178303 0.346233,0.271301 0.114533,0.093 0.228275,0.188391 0.341064,0.286287 0.112789,0.0979 0.224449,0.198195 0.335381,0.300757 0.110931,0.102563 0.221249,0.207197 0.33021,0.314193 0.108964,0.106996 0.216617,0.216432 0.323496,0.327629 0.106878,0.111197 0.212611,0.224349 0.317293,0.339514 0.104683,0.115165 0.208204,0.231982 0.310576,0.350883 0.102373,0.118901 0.203909,0.239848 0.303858,0.362252 0.09995,0.1224027 0.198692,0.2463957 0.296106,0.3720697 0.09741,0.125674 0.193072,0.253177 0.287838,0.381889 0.09476,0.128712 0.1886,0.258639 0.280601,0.390157 0.092,0.131518 0.182176,0.264334 0.271301,0.398425 0.08913,0.134091 0.176895,0.269746 0.263035,0.406177 0.08614,0.136431 0.170694,0.273839 0.25373,0.412378 0.08304,0.138538 0.164608,0.278165 0.244431,0.418579 0.07982,0.140414 0.158117,0.28169 0.234611,0.423747 0.07649,0.142056 0.151222,0.284931 0.224274,0.428397 0.07305,0.143467 0.144441,0.287371 0.213942,0.432015 0.0695,0.144644 0.137255,0.290044 0.203086,0.435632 0.06583,0.145589 0.12967,0.291399 0.19172,0.4377 0.06205,0.146301 0.122192,0.292986 0.180351,0.439767 0.05816,0.146781 0.114313,0.293772 0.168465,0.4408 0.05415,0.147028 0.106548,0.293758 0.15658,0.4408 0.05003,0.147043 0.09786,0.294492 0.143661,0.441317 0.0458,0.146825 0.08929,0.293392 0.130741,0.439766 0.04146,0.146375 0.08083,0.292525 0.117822,0.438217 0.037,0.145691 0.07144,0.290856 0.10387,0.435632 0.03242,0.144776 0.0627,0.288904 0.09043,0.432532 0.02774,0.143627 0.05302,0.286667 0.07596,0.428914 0.02294,0.142247 0.04346,0.28363 0.0615,0.424263 0.01803,0.140634 0.0335,0.280309 0.04651,0.419096 0.013,0.138788 0.02365,0.276703 0.03152,0.413412 0.0079,0.136709 0.0134,0.272295 0.01602,0.406693 0.0026,0.134399 0.0022,0.267605 -5.18e-4,0.399459 -0.0027,0.131855 -0.0083,0.262629 -0.01654,0.391708 -0.0082,0.129078 -0.01874,0.256335 -0.03255,0.382405 -0.01381,0.12607 -0.03061,0.250792 -0.05013,0.373621 -0.01951,0.122828 -0.04185,0.24393 -0.06718,0.363285 -0.02533,0.119355 -0.05349,0.236785 -0.08475,0.352433 -0.03126,0.115648 -0.06553,0.229355 -0.102836,0.341065 -0.0373,0.111709 -0.07798,0.221641 -0.121438,0.329179 -0.04346,0.107537 -0.0898,0.213126 -0.139528,0.316259 -0.04973,0.103134 -0.102537,0.20381 -0.158644,0.302307 -0.05611,0.0985 -0.115684,0.194727 -0.178285,0.288355 -0.0626,0.09363 -0.128193,0.184842 -0.197405,0.273368 -0.0346,0.04426 -0.07018,0.0878 -0.106453,0.130742 -0.03628,0.04294 -0.07365,0.08501 -0.111619,0.126607 -0.03797,0.0416 -0.07661,0.08277 -0.116274,0.12299 -0.03967,0.04022 -0.08006,0.07953 -0.121439,0.118339 -0.04138,0.03881 -0.08401,0.07683 -0.127124,0.114205 -0.04311,0.03738 -0.08692,0.07416 -0.131776,0.110071 -0.04485,0.03591 -0.09033,0.071 -0.136943,0.10542 -0.04661,0.03442 -0.09424,0.06839 -0.142626,0.101285 -0.04839,0.0329 -0.09762,0.06477 -0.147794,0.09612 -0.05017,0.03135 -0.101507,0.0617 -0.153479,0.09147 -0.05197,0.02976 -0.10486,0.05918 -0.158647,0.08733 -0.05379,0.02815 -0.108199,0.05513 -0.163814,0.08165 -0.234559,0.11183 -0.461177,0.224091 -0.680061,0.33693 -0.218888,0.112838 -0.430374,0.226272 -0.634072,0.340031 -0.203694,0.113758 -0.399605,0.228023 -0.588594,0.342614 -0.18899,0.114591 -0.370938,0.229862 -0.545704,0.345199 -0.174762,0.115335 -0.342307,0.230757 -0.503327,0.34675 -0.16102,0.115991 -0.315262,0.232254 -0.463021,0.348816 -0.147759,0.11656 -0.289282,0.233323 -0.424264,0.350364 -0.06749,0.05852 -0.133533,0.117076 -0.197919,0.175702 -0.06439,0.05862 -0.12676,0.117499 -0.188103,0.176215 -0.06134,0.05872 -0.121476,0.117419 -0.179835,0.176218 -0.05836,0.0588 -0.115096,0.117864 -0.170532,0.176734 -0.05543,0.05887 -0.109691,0.117803 -0.162263,0.176733 -0.05257,0.05893 -0.103709,0.117753 -0.15348,0.176731 -0.04977,0.05898 -0.09818,0.117719 -0.145211,0.176734 -0.04703,0.05902 -0.0926,0.118208 -0.136943,0.177252 -0.08869,0.118084 -0.171786,0.236374 -0.250114,0.3545 -0.07832,0.118126 -0.151698,0.235902 -0.220141,0.353983 -0.06844,0.118078 -0.132162,0.236038 -0.191204,0.353983 -0.05904,0.117946 -0.113694,0.236263 -0.163814,0.353984 -0.05012,0.117724 -0.09578,0.235021 -0.137459,0.352433 -0.04168,0.117411 -0.07944,0.234902 -0.11317,0.351917 -0.03373,0.117014 -0.06315,0.233839 -0.0894,0.350366 -0.02625,0.116528 -0.04895,0.232347 -0.06821,0.348298 -0.01927,0.115953 -0.0353,0.231976 -0.04806,0.347265 -0.01276,0.115293 -0.02221,0.230143 -0.02894,0.344684 -0.0067,0.114541 -0.0107,0.228396 -0.01188,0.342098 -0.0012,0.113702 2.62e-4,0.227253 0.0041,0.340029 0.0039,0.112779 0.01015,0.225169 0.01861,0.336931 0.0085,0.111763 0.01897,0.222652 0.03152,0.333314 0.01255,0.110662 0.02725,0.22074 0.04341,0.330211 0.01616,0.109474 0.03393,0.218403 0.05323,0.326596 0.01929,0.108194 0.04007,0.215633 0.06201,0.322461 0.02194,0.106829 0.04514,0.212953 0.06924,0.318326 0.0028,0.01231 0.0059,0.0244 0.0088,0.03669 -0.08793,-3.003698 1.308756,-6.299395 7.555095,-9.274886 C 45.249734,22.624149 36.033328,2.928723 26.568127,2.9287224 Z"
         inkscape:transform-center-x="-1.4242328"
         inkscape:transform-center-y="-3.2685873" />
      <path
         id="path8062"
         style="fill:#ffffff;fill-opacity:0.939781;stroke:#000000;stroke-width:0"
         inkscape:transform-center-x="3.9784862"
         inkscape:transform-center-y="-1.3461122"
         d="m 29.726951,8.5921413 c 3.99101,1.7685867 6.431414,6.0970127 5.450795,9.6678117 -0.980619,3.570798 -2.542251,-3.608569 -6.533261,-5.377155 -3.991011,-1.768587 -8.900086,2.543332 -7.919466,-1.027465 0.980619,-3.5707984 5.010922,-5.0317783 9.001932,-3.2631917 z"
         sodipodi:nodetypes="sssss" />
      <path
         style="fill:none;stroke:#f7c679;stroke-width:0.264583px;stroke-linecap:butt;stroke-linejoin:miter;stroke-opacity:1"
         d="m 25.446291,35.890665 c 0.07481,-2.303647 -0.396208,-4.528246 -0.949488,-6.741369 -0.712589,-2.850356 -4.003324,-6.299683 -3.228261,-9.399936 0.482732,-1.93093 3.608056,4.878126 3.608056,2.46867 0,-0.589349 0.362329,-3.474366 1.424233,-2.943414 1.267567,0.633783 0.291897,3.892903 1.70908,3.892903 1.036013,0 1.550688,-6.488667 3.133312,-0.949489 0.634103,2.21936 -1.892062,1.87823 -2.468671,3.608057 -1.144675,3.434025 -1.329283,7.683368 -1.329283,11.298912"
         id="path18781" />
      <path
         id="rect8265"
         style="fill:#333333;stroke:#000000;stroke-width:0"
         d="m 21.45844,34.276536 c 0,0 3.892902,1.931103 9.115089,0 l 1.329284,12.204569 c -0.569693,0.772441 -5.849305,8.490835 -12.153452,0 -0.134218,-6.180496 1.709079,-12.204569 1.709079,-12.204569 z"
         sodipodi:nodetypes="ccccc"
         inkscape:transform-center-x="1.2343351"
         inkscape:transform-center-y="1.424233" />
      <path
         style="fill:#545454;fill-opacity:1;stroke:#000000;stroke-width:0;stroke-linecap:butt;stroke-linejoin:miter;stroke-miterlimit:4;stroke-dasharray:none;stroke-opacity:1"
         d="m 22.208005,36.460356 c -0.05819,0.421066 -0.811106,3.228222 -0.185596,3.502762 4.516788,1.982448 8.817795,-2.443786 7.795058,-2.443786 -3.505752,0 -5.226197,1.242292 -7.609462,-1.058976 z"
         id="path20595" />
      <path
         style="fill:#545454;fill-opacity:1;stroke:#000000;stroke-width:0;stroke-linecap:butt;stroke-linejoin:miter;stroke-miterlimit:4;stroke-dasharray:none;stroke-opacity:1"
         d="m 21.731392,41.207799 c -6.032022,6.58421 10.789723,5.070078 9.033207,3.483873 -2.536982,-2.291 -6.802151,-0.5737 -9.033207,-3.483873 z"
         id="path20599" />
    </g>
  </g>
</svg>
