<?xml version="1.0" encoding="UTF-8" standalone="no"?>
<!-- Created with Inkscape (http://www.inkscape.org/) -->

<svg
   width="200"
   height="200"
   viewBox="0 0 52.916666 52.916666"
   version="1.1"
   id="svg5"
   inkscape:version="1.1.1 (3bf5ae0d25, 2021-09-20)"
   sodipodi:docname="LogoTest.svg"
   xmlns:inkscape="http://www.inkscape.org/namespaces/inkscape"
   xmlns:sodipodi="http://sodipodi.sourceforge.net/DTD/sodipodi-0.dtd"
   xmlns="http://www.w3.org/2000/svg"
   xmlns:svg="http://www.w3.org/2000/svg">
  <sodipodi:namedview
     id="namedview7"
     pagecolor="#505050"
     bordercolor="#eeeeee"
     borderopacity="1"
     inkscape:pageshadow="0"
     inkscape:pageopacity="0"
     inkscape:pagecheckerboard="0"
     inkscape:document-units="px"
     showgrid="false"
     inkscape:zoom="1.9704153"
     inkscape:cx="74.603561"
     inkscape:cy="130.1756"
     inkscape:window-width="1548"
     inkscape:window-height="899"
     inkscape:window-x="51"
     inkscape:window-y="136"
     inkscape:window-maximized="0"
     inkscape:current-layer="g847"
     units="px">
    <inkscape:grid
       type="xygrid"
       id="grid28323" />
  </sodipodi:namedview>
  <defs
     id="defs2" />
  <g
     inkscape:label="Layer 1"
     inkscape:groupmode="layer"
     id="layer1">
    <g
       id="g847">
      <g
         id="g1302">
        <path
           id="path490"
           style="fill:#008080;stroke-width:0.106176"
           d="M 50.851388,26.440807 A 23.8125,23.739441 0 0 1 27.038888,50.180246 23.8125,23.739441 0 0 1 3.2263884,26.440807 23.8125,23.739441 0 0 1 27.038888,2.7013661 23.8125,23.739441 0 0 1 50.851388,26.440807 Z" />
        <path
           id="path586"
           style="fill:#00ffff;stroke-width:0.128939"
           d="m 50.330225,31.497969 a 23.201922,6.508224 0 0 1 -23.20192,6.508224 23.201922,6.508224 0 0 1 -23.201922,-6.508224 23.201922,6.508224 0 0 1 23.201922,-6.508224 23.201922,6.508224 0 0 1 23.20192,6.508224 z" />
        <path
           style="fill:#50ce86;fill-opacity:0.77459;stroke:#000000;stroke-width:0.211884;stroke-linecap:butt;stroke-linejoin:miter;stroke-miterlimit:4;stroke-dasharray:none;stroke-opacity:1"
           d="M 3.7676046,31.28182 C 8.0656519,52.596634 41.836868,60.026723 50.387288,31.459757"
           id="path1862"
           sodipodi:nodetypes="cc" />
        <path
           id="path6499"
           style="fill:#ececec;stroke:#000000;stroke-width:0"
           d="M 38.864799,16.729568 A 11.603096,11.244681 0 0 1 27.261703,27.974249 11.603096,11.244681 0 0 1 15.658607,16.729568 11.603096,11.244681 0 0 1 27.261703,5.4848857 11.603096,11.244681 0 0 1 38.864799,16.729568 Z" />
        <path
           id="path7483"
           style="fill-opacity:0.184426;stroke:#000000;stroke-width:0"
           d="M 38.217186,31.363795 A 11.117383,1.6678715 0 0 1 27.099802,33.031667 11.117383,1.6678715 0 0 1 15.982419,31.363795 11.117383,1.6678715 0 0 1 27.099802,29.695923 11.117383,1.6678715 0 0 1 38.217186,31.363795 Z" />
        <path
           id="ellipse25412"
           style="fill:#b9a8a8;stroke:#000000;stroke-width:0"
           d="m 38.648931,18.001326 c 0.412165,4.107249 -5.152613,10.452877 -11.47882,10.188132 -5.756442,-0.2409 -11.370527,-5.55105 -10.971819,-9.418847 0.353336,-3.427662 2.399721,6.552897 9.892461,7.848475 9.190934,1.589212 12.226107,-11.926898 12.558178,-8.61776 z"
           sodipodi:nodetypes="sssss" />
        <path
           id="ellipse26698"
           style="fill:#ffffff;stroke:#000000;stroke-width:0"
           d="m 35.62678,14.147056 a 8.5269862,8.0165435 0 0 1 -8.526986,8.016543 8.5269862,8.0165435 0 0 1 -8.526986,-8.016543 8.5269862,8.0165435 0 0 1 8.526986,-8.0165431 8.5269862,8.0165435 0 0 1 8.526986,8.0165431 z" />
        <path
           id="path862"
           style="fill:#13ff57;fill-opacity:0.779197;stroke:#000000;stroke-width:0"
           d="m 34.643709,14.971992 a 7.5195651,7.0495925 0 0 1 -7.519565,7.049592 7.5195651,7.0495925 0 0 1 -7.519566,-7.049592 7.5195651,7.0495925 0 0 1 7.519566,-7.049593 7.5195651,7.0495925 0 0 1 7.519565,7.049593 z" />
        <path
           id="path26914"
           style="fill:#1d1d1d;stroke:#000000;stroke-width:0"
           d="m 31.093427,16.299148 a 3.9396553,4.7884054 0 0 1 -3.939655,4.788405 3.9396553,4.7884054 0 0 1 -3.939655,-4.788405 3.9396553,4.7884054 0 0 1 3.939655,-4.788406 3.9396553,4.7884054 0 0 1 3.939655,4.788406 z" />
        <path
           id="path1034"
           style="fill:#ffffff;stroke:#000000;stroke-width:0"
           d="m 30.019203,14.997749 a 1.4475288,1.9727885 0 0 1 -1.447529,1.972789 1.4475288,1.9727885 0 0 1 -1.447528,-1.972789 1.4475288,1.9727885 0 0 1 1.447528,-1.972788 1.4475288,1.9727885 0 0 1 1.447529,1.972788 z" />
      </g>
    </g>
  </g>
</svg>
