<?xml version="1.0" encoding="UTF-8" standalone="no"?>
<!-- Created with Inkscape (http://www.inkscape.org/) -->

<svg
   width="200"
   height="200"
   viewBox="0 0 52.916666 52.916666"
   version="1.1"
   id="svg5"
   inkscape:version="1.1.1 (3bf5ae0d25, 2021-09-20)"
   sodipodi:docname="PrizesIcon.svg"
   xmlns:inkscape="http://www.inkscape.org/namespaces/inkscape"
   xmlns:sodipodi="http://sodipodi.sourceforge.net/DTD/sodipodi-0.dtd"
   xmlns="http://www.w3.org/2000/svg"
   xmlns:svg="http://www.w3.org/2000/svg">
  <sodipodi:namedview
     id="namedview7"
     pagecolor="#505050"
     bordercolor="#eeeeee"
     borderopacity="1"
     inkscape:pageshadow="0"
     inkscape:pageopacity="0"
     inkscape:pagecheckerboard="0"
     inkscape:document-units="mm"
     showgrid="false"
     width="200mm"
     inkscape:snap-global="true"
     inkscape:snap-bbox="false"
     inkscape:bbox-paths="false"
     inkscape:bbox-nodes="false"
     inkscape:snap-bbox-edge-midpoints="true"
     inkscape:snap-bbox-midpoints="false"
     inkscape:snap-nodes="false"
     inkscape:snap-others="false"
     inkscape:zoom="2"
     inkscape:cx="113"
     inkscape:cy="143.5"
     inkscape:window-width="1920"
     inkscape:window-height="986"
     inkscape:window-x="-11"
     inkscape:window-y="-11"
     inkscape:window-maximized="1"
     inkscape:current-layer="layer1"
     units="px" />
  <defs
     id="defs2" />
  <g
     inkscape:label="Layer 1"
     inkscape:groupmode="layer"
     id="layer1">
    <g
       id="g16502"
       transform="matrix(0.28854593,0,0,0.26947827,-3.3687645,-1.4230033)">
      <path
         id="path1426"
         style="fill:#52709f;fill-opacity:1;stroke:#bdf3d8;stroke-width:2;stroke-linecap:round;stroke-miterlimit:4;stroke-dasharray:none;paint-order:fill markers stroke"
         d="M 52.332923,41.816774 V 141.81687 a 50,50 0 0 1 0.140041,-3.73673 50,50 0 0 1 0.418579,-3.71553 50,50 0 0 1 0.69505,-3.67368 50,50 0 0 1 0.967898,-3.61167 50,50 0 0 1 1.235067,-3.5295 50,50 0 0 1 1.494999,-3.42718 50,50 0 0 1 1.747182,-3.30574 50,50 0 0 1 1.989542,-3.16621 50,50 0 0 1 2.220018,-3.00809 50,50 0 0 1 2.439128,-2.83445 50,50 0 0 1 2.644283,-2.64377 50,50 0 0 1 2.833936,-2.43912 50,50 0 0 1 3.008601,-2.22054 50,50 0 0 1 3.1657,-1.989023 50,50 0 0 1 3.305741,-1.747178 50,50 0 0 1 3.427179,-1.495518 50,50 0 0 1 3.529502,-1.234548 50,50 0 0 1 3.611666,-0.967899 50,50 0 0 1 3.674195,-0.69505 50,50 0 0 1 3.715534,-0.418579 50,50 0 0 1 3.736206,-0.140044 50,50 0 0 1 1.28777,0.01654 50,50 0 0 1 1.28623,0.04961 50,50 0 0 1 1.28468,0.0832 50,50 0 0 1 1.28261,0.115755 50,50 0 0 1 1.27899,0.148828 50,50 0 0 1 1.27434,0.181901 50,50 0 0 1 1.26969,0.214456 50,50 0 0 1 1.26349,0.247015 50,50 0 0 1 1.25677,0.279569 50,50 0 0 1 1.24902,0.311608 50,50 0 0 1 1.24075,0.344165 50,50 0 0 1 1.23145,0.375689 50,50 0 0 1 1.22163,0.40721 50,50 0 0 1 1.21026,0.438732 50,50 0 0 1 1.19889,0.469739 50,50 0 0 1 1.18649,0.500229 50,50 0 0 1 1.17306,0.530717 50,50 0 0 1 1.15858,0.560689 50,50 0 0 1 1.14412,0.590661 50,50 0 0 1 1.12861,0.619601 50,50 0 0 1 1.1126,0.648539 50,50 0 0 1 1.09502,0.67696 50,50 0 0 1 1.07745,0.704866 50,50 0 0 1 1.05886,0.73226 50,50 0 0 1 1.03972,0.75964 50,50 0 0 1 1.01958,0.78599 50,50 0 0 1 0.99891,0.81184 50,50 0 0 1 0.97823,0.83716 50,50 0 0 1 0.95602,0.86248 50,50 0 0 1 0.93379,0.88676 50,50 0 0 1 0.91002,0.91054 50,50 0 0 1 0.88677,0.93328 50,50 0 0 1 0.86248,0.95601 50,50 0 0 1 0.83716,0.97824 50,50 0 0 1 0.81235,0.9989 50,50 0 0 1 0.78548,1.0201 50,50 0 0 1 0.75964,1.03921 50,50 0 0 1 0.73226,1.05937 50,50 0 0 1 0.70538,1.07693 50,50 0 0 1 0.67696,1.09554 50,50 0 0 1 0.64854,1.11208 50,50 0 0 1 0.6196,1.12861 50,50 0 0 1 0.59015,1.14412 50,50 0 0 1 0.56069,1.1591 50,50 0 0 1 0.53072,1.17306 50,50 0 0 1 0.50074,1.18597 50,50 0 0 1 0.46922,1.19889 50,50 0 0 1 0.43873,1.21027 50,50 0 0 1 0.40721,1.22163 50,50 0 0 1 0.37569,1.23145 50,50 0 0 1 0.34417,1.24075 50,50 0 0 1 0.31161,1.24902 50,50 0 0 1 0.27957,1.25677 50,50 0 0 1 0.24752,1.26349 50,50 0 0 1 0.21446,1.26968 50,50 0 0 1 0.18139,1.27486 50,50 0 0 1 0.14883,1.27848 50,50 0 0 1 0.11627,1.28261 50,50 0 0 1 0.0827,1.28467 50,50 0 0 1 0.0496,1.28675 50,50 0 0 1 0.0165,1.28726 V 41.816774 Z" />
      <path
         id="path2016"
         style="fill:#c2cee0;fill-opacity:1;stroke:#bdf3d8;stroke-width:0;stroke-linecap:round;stroke-miterlimit:4;stroke-dasharray:none;paint-order:fill markers stroke"
         d="m 94.105595,44.755394 c 0,17.381562 -8.292483,0.345402 -18.521778,0.345401 -10.229295,0 -18.521776,17.036161 -18.521776,-0.345401 0,-17.381562 8.292481,-31.472101 18.521776,-31.472101 10.229295,-1e-6 18.521778,14.090539 18.521778,31.472101 z"
         sodipodi:nodetypes="sssss" />
      <path
         id="path2016-7"
         style="fill:#c2cee0;fill-opacity:1;stroke:#bdf3d8;stroke-width:0;stroke-linecap:round;stroke-miterlimit:4;stroke-dasharray:none;paint-order:fill markers stroke"
         d="m 147.35522,45.090587 c 0,17.062217 -6.71758,-1.088739 -16.79188,-1.088739 -10.07431,0 -19.69041,18.150956 -19.69041,1.088739 0,-17.062217 8.16684,-30.893876 18.24114,-30.893876 10.07431,0 18.24115,13.831659 18.24115,30.893876 z"
         sodipodi:nodetypes="sssss" />
      <path
         id="rect2144"
         style="fill:#c2cee0;stroke:#bdf3d8;stroke-width:0;stroke-linecap:round;paint-order:fill markers stroke"
         d="M 95.041039,42.28204 H 110.00813 V 93.041759 H 95.041039 Z" />
      <path
         id="path2040"
         style="fill:#e9eef4;stroke:#bdf3d8;stroke-width:0;stroke-linecap:round;paint-order:fill markers stroke"
         d="m 114.85138,47.175694 a 12.160763,9.822155 0 0 1 -12.16077,9.822155 12.160763,9.822155 0 0 1 -12.16076,-9.822155 12.160763,9.822155 0 0 1 12.16076,-9.822155 12.160763,9.822155 0 0 1 12.16077,9.822155 z" />
      <path
         id="path12786"
         style="fill:#71eff7;stroke:#bdf3d8;stroke-width:0;stroke-linecap:round;paint-order:fill markers stroke"
         d="m 143.34559,139.73155 a 40,40 0 0 1 -40,40 40,40 0 0 1 -40.000001,-40 40,40 0 0 1 40.000001,-39.999998 40,40 0 0 1 40,39.999998 z" />
      <path
         style="fill:#5af76c;fill-opacity:1;stroke:#bdf3d8;stroke-width:0;stroke-linecap:round;stroke-miterlimit:4;stroke-dasharray:none;paint-order:fill markers stroke"
         d="m 116.17726,104.78778 c -7.74294,-1.77895 -29.16928,11.52981 -20.45363,20.12583 4.66473,4.60071 14.46395,3.48534 17.86284,8.42667 3.85689,5.60717 -5.08547,23.8098 6.86333,22.04842 26.39953,-3.89155 14.97173,-44.67587 -4.27254,-50.60092 z"
         id="path16210" />
      <path
         style="fill:#5af76c;fill-opacity:1;stroke:#bdf3d8;stroke-width:0;stroke-linecap:round;stroke-miterlimit:4;stroke-dasharray:none;paint-order:fill markers stroke"
         d="m 75.084849,121.98837 c -23.161034,15.51937 17.529903,63.56348 32.021301,49.14875 5.23771,-5.21001 -11.516262,-13.24117 -13.044876,-16.95561 -1.381294,-3.35645 1.806874,-5.2971 0.704514,-7.28129 -2.141511,-3.85462 -8.889619,-2.04793 -11.272224,-6.83133 -3.52407,-7.07506 4.782037,-17.50143 -8.408715,-18.08052 z"
         id="path16391" />
    </g>
  </g>
</svg>
