<?xml version="1.0" encoding="UTF-8" standalone="no"?>
<svg
   id="svg"
   version="1.1"
   width="200"
   height="200"
   viewBox="0 0 200 200"
   sodipodi:docname="image2vector.svg"
   inkscape:version="1.1.1 (3bf5ae0d25, 2021-09-20)"
   xmlns:inkscape="http://www.inkscape.org/namespaces/inkscape"
   xmlns:sodipodi="http://sodipodi.sourceforge.net/DTD/sodipodi-0.dtd"
   xmlns="http://www.w3.org/2000/svg"
   xmlns:svg="http://www.w3.org/2000/svg">
  <defs
     id="defs11" />
  <sodipodi:namedview
     id="namedview9"
     pagecolor="#505050"
     bordercolor="#eeeeee"
     borderopacity="1"
     inkscape:pageshadow="0"
     inkscape:pageopacity="0"
     inkscape:pagecheckerboard="0"
     showgrid="false"
     width="200px"
     inkscape:zoom="2.0206718"
     inkscape:cx="199.9335"
     inkscape:cy="153.90921"
     inkscape:window-width="1920"
     inkscape:window-height="986"
     inkscape:window-x="-11"
     inkscape:window-y="-11"
     inkscape:window-maximized="1"
     inkscape:current-layer="svg" />
  <g
     id="svgg"
     transform="matrix(0.44998795,0,0,0.46545147,12.380372,9.931757)">
    <path
       id="path0"
       d="m 139.477,0.349 c -11.442,1.494 -21.78,7.797 -29.31,17.869 -2.867,3.834 -42.971,76.79 -42.467,77.255 0.94,0.869 84.38,46.567 84.751,46.417 0.21,-0.086 11.832,-20.781 25.825,-45.989 L 203.719,50.069 194.558,35.618 C 189.52,27.67 184.683,20.042 183.81,18.667 179.032,11.146 168.951,3.959 161.09,2.469 159.665,2.199 157.919,1.821 157.208,1.63 151.962,0.216 144.578,-0.317 139.477,0.349 m 171.356,143.345 c -22.916,13.214 -41.777,24.132 -41.912,24.261 -0.135,0.13 11.512,20.705 25.883,45.724 l 26.128,45.488 19.888,0.086 c 26.781,0.115 30.052,-0.62 40.639,-9.133 16.646,-13.386 22.429,-31.974 16.008,-51.453 -1.183,-3.59 -43.78,-78.978 -44.634,-78.993 -0.183,-0.003 -19.083,10.806 -42,24.02 M 77.057,257.917 c -18.757,32.314 -18.511,31.869 -19.858,35.901 -2.789,8.347 -2.571,15.876 0.829,28.604 0.184,0.69 1.22,3.015 2.301,5.166 6.194,12.325 14.236,19.31 27.106,23.542 7.046,2.318 4.328,2.203 52.435,2.203 h 43.463 V 304.5 255.667 H 130.848 78.363 l -1.306,2.25"
       stroke="none"
       fill="#4c9404"
       fill-rule="evenodd" />
    <path
       id="path1"
       d="m 160.167,1.977 c 8.53,1.776 17.879,7.965 22.732,15.049 1.905,2.781 20.648,32.474 20.86,33.048 0.117,0.316 7.733,13.349 16.925,28.962 12.757,21.67 16.605,28.455 16.264,28.675 -0.247,0.158 -8.657,4.966 -18.691,10.685 -10.033,5.718 -18.179,10.46 -18.102,10.537 0.077,0.076 22.768,-0.962 50.425,-2.308 l 50.286,-2.448 23.087,-41.791 c 12.698,-22.985 23.029,-41.848 22.959,-41.918 -0.07,-0.07 -7.375,4.082 -16.234,9.226 -13.07,7.591 -16.181,9.271 -16.504,8.913 -0.219,-0.242 -5.764,-9.59 -12.321,-20.774 C 288.112,14.398 288.156,14.469 285.692,11.878 281.426,7.39 277.111,5.129 269.772,3.537 L 264.5,2.394 223,2.024 C 200.175,1.821 176.025,1.587 169.333,1.504 l -12.166,-0.152 3,0.625 M 0.015,134.916 c 0.008,0.138 7.208,4.521 16,9.741 8.792,5.22 15.985,9.587 15.985,9.705 0,0.118 -5.722,9.872 -12.715,21.676 -6.993,11.804 -13.21,22.662 -13.817,24.129 -2.58,6.241 -2.747,14.128 -0.449,21.166 0.59,1.804 51.953,99.139 52.191,98.902 0.042,-0.043 -0.21,-1.114 -0.561,-2.381 -2.683,-9.676 -1.974,-19.728 1.978,-28.021 1.299,-2.728 18.993,-33.45 19.715,-34.233 0.22,-0.238 7.775,-13.165 16.79,-28.725 9.014,-15.561 16.535,-28.269 16.712,-28.241 0.178,0.028 8.479,5.004 18.447,11.056 9.968,6.053 18.177,10.953 18.241,10.889 0.064,-0.064 -11.783,-19.383 -26.328,-42.931 L 95.76,134.833 47.88,134.749 c -26.334,-0.047 -47.873,0.028 -47.865,0.167 m 254.398,81.816 c -1.592,2.644 -47.08,87.236 -47.08,87.553 0,0.353 46.819,81.969 47.322,82.492 0.293,0.305 0.563,-7.462 0.882,-25.363 l 0.21,-11.754 27.21,0.087 27.21,0.086 2.833,-0.955 c 5.267,-1.776 9.762,-4.559 13.5,-8.357 1.954,-1.986 59.501,-92.038 60.462,-94.613 0.07,-0.19 -1.205,0.822 -2.834,2.248 -12.247,10.718 -15.931,11.638 -45.649,11.398 -44.324,-0.358 -83.859,-0.823 -84.023,-0.987 -0.095,-0.095 0.059,-9.741 0.34,-21.437 0.282,-11.696 0.461,-21.318 0.397,-21.382 -0.065,-0.064 -0.415,0.379 -0.78,0.984"
       stroke="none"
       fill="#8bfc04"
       fill-rule="evenodd" />
    <path
       id="path2"
       d="m 326.729,259.583 c 3.059,0.055 8.159,0.055 11.333,0 3.174,-0.055 0.671,-0.1 -5.562,-0.1 -6.233,0 -8.83,0.045 -5.771,0.1 M 55.084,303.5 c 0.004,0.733 0.072,0.994 0.152,0.579 0.079,-0.414 0.076,-1.014 -0.007,-1.333 -0.083,-0.319 -0.149,0.021 -0.145,0.754 m 0,5 c 0.004,0.733 0.072,0.994 0.152,0.579 0.079,-0.414 0.076,-1.014 -0.007,-1.333 -0.083,-0.319 -0.149,0.021 -0.145,0.754"
       stroke="none"
       fill="#6dce04"
       fill-rule="evenodd" />
    <path
       id="path3"
       d=""
       stroke="none"
       fill="#64c404"
       fill-rule="evenodd" />
    <path
       id="path4"
       d="m 178.653,12.417 c 1.381,1.471 1.68,1.736 1.68,1.486 0,-0.054 -0.712,-0.766 -1.583,-1.584 l -1.583,-1.486 1.486,1.584 m 168.764,247.165 c 2.154,0.058 5.679,0.058 7.833,0 2.154,-0.058 0.392,-0.105 -3.917,-0.105 -4.308,0 -6.071,0.047 -3.916,0.105 M 55.077,306 c 0,0.642 0.069,0.904 0.153,0.583 0.084,-0.321 0.084,-0.846 0,-1.166 -0.084,-0.321 -0.153,-0.059 -0.153,0.583"
       stroke="none"
       fill="#64bc04"
       fill-rule="evenodd" />
  </g>
</svg>
