<?xml version="1.0" encoding="UTF-8" standalone="no"?>
<!-- Created with Inkscape (http://www.inkscape.org/) -->

<svg
   width="200"
   height="200"
   viewBox="0 0 52.916666 52.916666"
   version="1.1"
   id="svg44545"
   inkscape:version="1.1.1 (3bf5ae0d25, 2021-09-20)"
   sodipodi:docname="ReviewIcon.svg"
   xmlns:inkscape="http://www.inkscape.org/namespaces/inkscape"
   xmlns:sodipodi="http://sodipodi.sourceforge.net/DTD/sodipodi-0.dtd"
   xmlns="http://www.w3.org/2000/svg"
   xmlns:svg="http://www.w3.org/2000/svg">
  <sodipodi:namedview
     id="namedview44547"
     pagecolor="#505050"
     bordercolor="#eeeeee"
     borderopacity="1"
     inkscape:pageshadow="0"
     inkscape:pageopacity="0"
     inkscape:pagecheckerboard="0"
     inkscape:document-units="mm"
     showgrid="false"
     inkscape:snap-global="false"
     inkscape:zoom="1.9704154"
     inkscape:cx="82.723675"
     inkscape:cy="118.75669"
     inkscape:window-width="1920"
     inkscape:window-height="986"
     inkscape:window-x="-11"
     inkscape:window-y="-11"
     inkscape:window-maximized="1"
     inkscape:current-layer="layer1"
     units="px">
    <inkscape:grid
       type="xygrid"
       id="grid48982" />
  </sodipodi:namedview>
  <defs
     id="defs44542" />
  <g
     inkscape:label="Layer 1"
     inkscape:groupmode="layer"
     id="layer1">
    <g
       id="g844"
       transform="matrix(0.29415667,0,0,0.29544836,-3.5961804,-8.2821749)">
      <path
         id="path48355"
         style="fill:#f2f2f2;stroke:#5cf999;stroke-width:0;stroke-linecap:round"
         d="M 156.09591,90.201408 A 56.019821,54.500641 0 0 1 100.07609,144.70205 56.019821,54.500641 0 0 1 44.056267,90.201408 56.019821,54.500641 0 0 1 100.07609,35.700768 56.019821,54.500641 0 0 1 156.09591,90.201408 Z" />
      <path
         id="ellipse54724"
         style="fill:#b3b3b3;fill-opacity:0.436131;stroke:#5cf999;stroke-width:0;stroke-linecap:round;stroke-miterlimit:4;stroke-dasharray:none"
         d="M 156.58577,93.668867 H 44.577121 c -0.006,0.12679 -0.0108,0.253599 -0.0155,0.380417 6e-5,28.480286 25.08097,51.568066 56.019829,51.568066 30.93886,0 56.01977,-23.08778 56.01983,-51.568066 -0.005,-0.126818 -20.43692,-0.380417 -0.0155,-0.380417 z"
         sodipodi:nodetypes="cccscsc" />
      <path
         id="path48477"
         style="fill:#ffffff;stroke:#5cf999;stroke-width:0;stroke-linecap:round"
         d="M 134.06777,56.06686 A 33.232098,16.947931 0 0 1 100.83567,73.014791 33.232098,16.947931 0 0 1 67.603573,56.06686 33.232098,16.947931 0 0 1 100.83567,39.118929 33.232098,16.947931 0 0 1 134.06777,56.06686 Z" />
      <path
         id="path48623"
         style="fill:#60eaad;stroke:#5cf999;stroke-width:0;stroke-linecap:round"
         d="M 127.99104,107.672 A 26.395781,28.294756 0 0 1 101.59526,135.96675 26.395781,28.294756 0 0 1 75.19948,107.672 26.395781,28.294756 0 0 1 101.59526,79.377241 26.395781,28.294756 0 0 1 127.99104,107.672 Z" />
      <path
         id="path48599"
         style="stroke:#5cf999;stroke-width:0;stroke-linecap:round"
         d="M 115.83759,112.98913 A 14.81202,23.357416 0 0 1 101.02557,136.34654 14.81202,23.357416 0 0 1 86.213553,112.98913 14.81202,23.357416 0 0 1 101.02557,89.631712 14.81202,23.357416 0 0 1 115.83759,112.98913 Z" />
      <path
         id="path48947"
         style="fill:#ffffff;stroke:#5cf999;stroke-width:0;stroke-linecap:round"
         d="m 120.39514,98.5569 a 9.3049879,10.064577 0 0 1 -9.30499,10.06458 9.3049879,10.064577 0 0 1 -9.30499,-10.06458 9.3049879,10.064577 0 0 1 9.30499,-10.064577 9.3049879,10.064577 0 0 1 9.30499,10.064577 z" />
      <path
         style="fill:#c5c5c5;fill-opacity:1;stroke:#bdf3d8;stroke-width:2.44949;stroke-linecap:butt;stroke-linejoin:miter;stroke-miterlimit:4;stroke-dasharray:none;stroke-opacity:1"
         d="M 26.458333,187.85417 178.59375,186.53125 129.60611,153.45833 H 74.083333 Z"
         id="path48984"
         sodipodi:nodetypes="ccccc" />
      <path
         style="fill:none;stroke:#48a18e;stroke-width:5.17549;stroke-linecap:round;stroke-linejoin:miter;stroke-miterlimit:4;stroke-dasharray:none;stroke-opacity:1"
         d="M 63.499999,174.625 H 142.875"
         id="path49571" />
      <path
         style="fill:none;stroke:#199973;stroke-width:3.25396;stroke-linecap:round;stroke-linejoin:miter;stroke-miterlimit:4;stroke-dasharray:none;stroke-opacity:1"
         d="M 76.729167,166.6875 H 129.64583"
         id="path49573" />
      <path
         style="fill:none;stroke:#10705c;stroke-width:2.5;stroke-linecap:round;stroke-linejoin:miter;stroke-miterlimit:4;stroke-dasharray:none;stroke-opacity:1"
         d="m 87.3125,158.75 h 33.07292"
         id="path49577" />
      <path
         id="rect50009"
         style="fill:#bdf3d8;stroke:#bdf3d8;stroke-width:0;stroke-linecap:round"
         d="M 24.100201,187.325 H 182.01022 c 0.89228,0 1.61062,0.71833 1.61062,1.61061 v 3.15065 c 0,0.89228 -0.71834,1.61062 -1.61062,1.61062 H 24.100201 c -0.892282,0 -1.610617,-0.71834 -1.610617,-1.61062 v -3.15065 c 0,-0.89228 0.718335,-1.61061 1.610617,-1.61061 z" />
    </g>
  </g>
</svg>
