<?xml version="1.0" encoding="UTF-8" standalone="no"?>
<!-- Created with Inkscape (http://www.inkscape.org/) -->

<svg
   width="200"
   height="200"
   viewBox="0 0 52.916666 52.916668"
   version="1.1"
   id="svg5"
   inkscape:version="1.1.1 (3bf5ae0d25, 2021-09-20)"
   sodipodi:docname="Tree.svg"
   xmlns:inkscape="http://www.inkscape.org/namespaces/inkscape"
   xmlns:sodipodi="http://sodipodi.sourceforge.net/DTD/sodipodi-0.dtd"
   xmlns="http://www.w3.org/2000/svg"
   xmlns:svg="http://www.w3.org/2000/svg">
  <sodipodi:namedview
     id="namedview7"
     pagecolor="#505050"
     bordercolor="#eeeeee"
     borderopacity="1"
     inkscape:pageshadow="0"
     inkscape:pageopacity="0"
     inkscape:pagecheckerboard="0"
     inkscape:document-units="mm"
     showgrid="false"
     width="1e-05mm"
     units="px"
     inkscape:object-nodes="false"
     inkscape:snap-nodes="false"
     inkscape:snap-others="false"
     inkscape:zoom="2.7865881"
     inkscape:cx="77.155285"
     inkscape:cy="93.304066"
     inkscape:window-width="1920"
     inkscape:window-height="986"
     inkscape:window-x="-11"
     inkscape:window-y="-11"
     inkscape:window-maximized="1"
     inkscape:current-layer="layer1" />
  <defs
     id="defs2" />
  <g
     inkscape:label="Layer 1"
     inkscape:groupmode="layer"
     id="layer1">
    <ellipse
       style="fill:#3d6c67;stroke:#bdf3d8;stroke-width:0;stroke-linecap:round;paint-order:fill markers stroke"
       id="path846"
       cx="27.725061"
       cy="16.283724"
       rx="20.888746"
       ry="9.8272066" />
    <path
       style="fill:#c87137;stroke:#bdf3d8;stroke-width:0;stroke-linecap:round;paint-order:fill markers stroke"
       d="m 23.129278,24.41522 c 2.376113,2.39984 1.987015,16.593838 0.295114,19.472818 -1.170331,1.991463 -2.621453,3.098759 -4.481094,4.272517 -0.05869,0.03705 -0.858836,0.626123 -0.846515,0.634898 2.078331,1.480681 4.595877,-2.520037 6.306151,-1.81507 2.549131,1.05074 6.250367,3.279492 9.125278,2.449972 1.052571,-0.303703 -3.046645,-3.019805 -2.95892,-3.294019 0.414889,-1.296866 6.026836,1.111917 6.461474,-0.560208 0.08317,-0.319966 -1.613488,-0.966825 -1.871651,-1.127884 -1.922505,-1.199378 -4.176886,-2.322097 -4.861639,-4.855133 -1.118203,-4.136442 -1.576536,-8.45705 -1.576536,-12.765263 0,-1.023585 1.278221,-2.603395 0.838748,-3.413531 -1.328413,-2.448831 -5.361491,-0.435948 -5.801348,0.634902"
       id="path1929" />
    <path
       style="fill:#e9c6af;stroke:#bdf3d8;stroke-width:0;stroke-linecap:round;paint-order:fill markers stroke"
       d="m 23.026402,23.74759 c 2.495249,2.358199 2.086642,16.30591 0.309912,19.134936 -1.229011,1.956908 -2.752892,3.044991 -4.705772,4.198382 -0.06164,0.03641 -0.901898,0.615259 -0.888959,0.623884 2.182536,1.454987 4.826311,-2.476312 6.622335,-1.783577 2.676943,1.032507 6.563754,3.222588 9.582811,2.407462 1.105347,-0.298434 -3.199402,-2.967408 -3.107277,-3.236865 0.435692,-1.274363 6.329016,1.092624 6.785446,-0.550486 0.08734,-0.314415 -1.694387,-0.95005 -1.965494,-1.108313 -2.018898,-1.178568 -4.386311,-2.281807 -5.105398,-4.77089 -1.174268,-4.06467 -1.655582,-8.310309 -1.655582,-12.543768 0,-1.005825 1.34231,-2.558222 0.880803,-3.354302 -1.395018,-2.406339 -5.63031,-0.428382 -6.092223,0.623885"
       id="path1035" />
    <path
       style="fill:#c87137;stroke:#bdf3d8;stroke-width:0;stroke-linecap:round;paint-order:fill markers stroke"
       d="m 28.357485,24.808201 c 2.119788,-1.896057 3.653087,1.050555 4.370947,1.122298 1.018269,0.101765 0.24457,-1.416288 0.685311,-1.493706 0.883427,-0.155178 2.365043,0.696311 3.200903,0.13726 0.892613,-0.597013 -1.936831,-1.073855 -2.306657,-1.073855 -0.717399,0 1.252436,-1.796294 -0.125361,-1.574448 -0.763912,0.123003 -5.571653,3.171356 -4.604956,1.614818 0.378377,-0.609244 1.968979,-1.437846 2.599169,-1.752076 5.68414,-2.834282 4.005591,2.344256 6.694317,1.824744 2.143601,-0.414184 -1.682818,-2.365708 -0.468018,-2.365708 3.084326,0 1.812228,2.521701 3.234334,-0.226075 0.374731,-0.724055 3.004101,-0.04972 2.289941,-0.363334 -0.427603,-0.187773 -2.944138,-0.208559 -3.092257,-0.637853 -0.170589,-0.494413 2.611106,-2.360077 0.927676,-2.551412 -0.303128,-0.03445 -3.392472,4.232081 -4.287371,2.502968 -0.230667,-0.445693 2.482195,-3.060026 1.688206,-4.440749 -0.223221,-0.388174 -4.79736,5.353032 -6.65253,4.456896 -0.798959,-0.385935 1.12737,-3.050561 -0.342658,-3.334598 -1.701074,-0.32868 -0.70092,2.872953 -1.027964,3.294228 -0.66213,0.852906 -2.991234,2.971766 -2.473805,2.010449 1.288902,-2.394619 0.416763,-6.436569 3.877857,-6.733791 1.096326,-0.09415 2.634969,0.895519 3.610419,0.605556 1.704439,-0.506662 -1.651526,-1.599776 -1.103185,-2.058892 0.805262,-0.67423 3.544442,-0.758723 4.554809,-0.79126 1.248547,-0.04021 0.638936,1.876935 1.203474,2.276893 1.00926,0.715029 0.766049,-1.567489 1.228544,-1.501781 0.597312,0.08486 1.035627,2.361607 1.487626,2.777487 0.626156,0.576118 1.523744,0.258085 1.161685,-0.791261 -1.965426,-5.696369 -7.963747,-4.094087 -11.976224,-1.768225 -0.816832,0.473482 4.023832,-3.659806 3.886213,-3.770601 -0.36968,-0.2976231 -4.547738,1.106418 -4.905822,1.501782 -0.346371,0.382432 -0.51273,1.921223 -0.685311,1.421039 -0.601214,-1.742493 -4.358231,-4.2138034 -3.409837,-2.793634 1.076467,1.611955 -1.315187,1.810672 -1.303764,1.816669 2.920615,1.533472 3.083803,-1.208064 2.064289,2.567561 -0.197189,0.730265 -0.580748,5.926009 -1.888782,5.272379 -2.099137,-1.048947 0.449244,-3.4131 0.267439,-4.6426 -0.127066,-0.859295 -1.686739,0.834073 -1.989074,0.331038 -0.394201,-0.655883 -0.445437,-3.026083 -0.601736,-3.932082 -0.09241,-0.535688 1.439621,-1.9836971 1.228545,-2.1719301 -1.0949,-0.9764098 -1.690823,1.1193071 -2.298299,0.5813341 -0.317297,-0.2809951 -1.555385,-3.0161809 -2.256511,-1.5260026 -0.73499,1.5621536 2.552978,2.6432066 1.646418,3.8109696 -0.580576,0.747855 -4.236891,-0.32777 -4.379304,0.242223 -0.02622,0.104966 6.890749,1.683356 5.499202,5.716455 -0.112071,0.324813 -4.35519,-1.056568 -4.538096,-1.332225 -0.534924,-0.806189 1.115306,-1.974515 0.459661,-2.607931 -1.021653,-0.987012 -1.455471,3.172016 -2.975253,0.896224 -1.069255,-1.601153 0.325164,-4.416634 -0.142076,-4.481119 -0.749567,-0.103448 -1.08246,1.270778 -1.454196,1.727856 -0.153737,0.189031 -1.45712,-0.685262 -1.813566,-0.597484 -0.433024,0.106638 0.801621,1.235559 0.376085,1.372595 -0.511896,0.164848 -4.3324841,1.326822 -4.0951508,2.155783 0.33448,1.168271 4.0157158,-0.156912 5.1816188,1.130372 0.01185,0.01308 -4.025215,2.810424 -4.011576,2.817857 2.404204,1.310235 4.508002,-2.567162 7.237552,-0.589408 2.433739,1.763418 -2.327464,0.701571 -2.423661,1.033483 -0.140123,0.483471 1.051429,0.169078 1.119899,0.53289 0.06546,0.347841 -2.246032,1.830696 -2.147865,1.85704 1.242942,0.333556 2.710884,-1.323944 3.769209,-0.557112 0.470176,0.340675 -2.467354,2.176085 -1.922213,2.52719 1.222059,0.787083 1.74617,-1.25651 2.88332,-0.872002 0.60497,0.204561 1.456497,1.878298 1.537771,1.20304 0.115162,-0.956824 -1.048063,-3.392705 -0.183864,-3.996675 0.363983,-0.254379 0.408764,-0.175948 0.827387,-0.12111 0.871727,0.114192 2.713655,0.512748 2.415303,1.953928 -0.108228,0.522795 -1.58763,-0.590471 -1.629702,0.161483 -0.04065,0.726499 1.101007,0.486784 0.910962,1.194965 -0.108722,0.405135 -1.123515,0.916953 -0.534877,1.485632 0.299027,0.288889 3.207429,-3.329114 5.92543,-0.484445 z"
       id="path2029" />
    <path
       style="fill:#e9c6af;stroke:#bdf3d8;stroke-width:0;stroke-linecap:round;paint-order:fill markers stroke"
       d="m 28.564043,24.910708 c 2.068587,-1.723629 3.564851,0.955017 4.265372,1.020236 0.993674,0.09251 0.238662,-1.287491 0.668758,-1.357868 0.862089,-0.141066 2.307918,0.632988 3.123589,0.124777 0.871053,-0.54272 -1.890049,-0.976198 -2.250943,-0.976198 -0.700071,0 1.222185,-1.632939 -0.122333,-1.431267 -0.74546,0.111817 -5.437076,2.882952 -4.493728,1.467966 0.369237,-0.55384 1.92142,-1.307088 2.536389,-1.592742 5.546846,-2.576532 3.90884,2.131069 6.532623,1.658801 2.091825,-0.376518 -1.642171,-2.15057 -0.456713,-2.15057 3.009828,0 1.768456,2.292377 3.156212,-0.205515 0.36568,-0.65821 2.931541,-0.0452 2.234631,-0.330293 -0.417275,-0.170697 -2.873026,-0.189592 -3.017568,-0.579846 -0.166468,-0.449451 2.548038,-2.145451 0.905269,-2.319386 -0.295806,-0.03132 -3.31053,3.847214 -4.183814,2.275347 -0.225096,-0.405161 2.42224,-2.781746 1.647429,-4.036906 -0.217829,-0.352873 -4.681485,4.866226 -6.491846,4.051585 -0.779661,-0.350838 1.10014,-2.773142 -0.334381,-3.031349 -1.659987,-0.29879 -0.68399,2.611686 -1.003135,2.99465 -0.646137,0.775343 -2.918984,2.701513 -2.414053,1.827618 1.25777,-2.176851 0.406696,-5.851225 3.784192,-6.121418 1.069845,-0.08559 2.571324,0.81408 3.523213,0.550487 1.663271,-0.460586 -1.611635,-1.454292 -1.076539,-1.871656 0.785812,-0.612916 3.458831,-0.689725 4.444793,-0.719303 1.21839,-0.03655 0.623504,1.706246 1.174406,2.069832 0.984882,0.650004 0.747546,-1.424941 1.19887,-1.365209 0.582885,0.07714 1.010613,2.146842 1.451694,2.524902 0.611032,0.523726 1.48694,0.234615 1.133626,-0.719304 -1.917954,-5.178339 -7.771392,-3.721769 -11.686953,-1.607422 -0.797102,0.430424 3.926642,-3.326982 3.792347,-3.427701 -0.360751,-0.270557 -4.437893,1.0058 -4.787328,1.365209 -0.338005,0.347654 -0.500346,1.746507 -0.668758,1.29181 -0.586693,-1.584031 -4.252963,-3.830599 -3.327477,-2.539581 1.050467,1.465364 -1.28342,1.646009 -1.272273,1.651461 2.850071,1.394018 3.009318,-1.098202 2.014429,2.334066 -0.192426,0.663855 -0.566721,5.387097 -1.843161,4.792908 -2.048435,-0.953556 0.438393,-3.102712 0.260979,-4.220401 -0.123997,-0.78115 -1.645997,0.758222 -1.94103,0.300933 -0.384679,-0.596236 -0.434678,-2.75089 -0.587202,-3.574497 -0.09018,-0.486972 1.404849,-1.803299 1.198871,-1.974414 -1.068454,-0.887615 -1.649983,1.017517 -2.242786,0.528467 -0.309633,-0.255441 -1.517817,-2.7418881 -2.202008,-1.387227 -0.717237,1.420091 2.491314,2.402832 1.606651,3.464399 -0.566553,0.679845 -4.134554,-0.297963 -4.273527,0.220195 -0.02559,0.09542 6.724311,1.530271 5.366375,5.196599 -0.109364,0.295274 -4.249995,-0.960483 -4.428483,-1.211072 -0.522004,-0.732874 1.088367,-1.794952 0.448558,-2.370765 -0.996976,-0.897253 -1.420316,2.883552 -2.903389,0.814721 -1.043429,-1.455544 0.31731,-4.014984 -0.138645,-4.073605 -0.731462,-0.09404 -1.056314,1.155213 -1.419071,1.570724 -0.150024,0.171841 -1.421925,-0.622944 -1.769762,-0.543148 -0.422565,0.09694 0.782259,1.123197 0.367001,1.247771 -0.499531,0.149856 -4.2278379,1.20616 -3.996237,1.959735 0.326401,1.062028 3.918721,-0.142642 5.056463,1.027576 0.01156,0.01189 -3.927991,2.554843 -3.914681,2.5616 2.346133,1.191082 4.399116,-2.333703 7.062737,-0.535807 2.374955,1.603052 -2.271246,0.63777 -2.36512,0.939498 -0.136738,0.439504 1.026033,0.153702 1.092849,0.484429 0.06388,0.316208 -2.191782,1.664212 -2.095986,1.68816 1.212921,0.303222 2.645406,-1.203544 3.678169,-0.506448 0.458819,0.309694 -2.407758,1.978191 -1.875785,2.297367 1.192542,0.715505 1.703994,-1.142243 2.813677,-0.792702 0.590358,0.185958 1.421317,1.707485 1.500628,1.093635 0.112381,-0.86981 -1.022748,-3.084172 -0.179423,-3.633216 0.355192,-0.231246 0.398891,-0.159948 0.807403,-0.110097 0.850671,0.103808 2.648109,0.466119 2.356964,1.776238 -0.105614,0.475252 -1.549283,-0.536774 -1.590339,0.146797 -0.03967,0.660431 1.074414,0.442516 0.888959,1.086295 -0.106096,0.368292 -1.096378,0.833565 -0.521958,1.350528 0.291805,0.262618 3.129958,-3.026363 5.782309,-0.440389 z"
       id="path1039" />
    <path
       id="path1143"
       style="fill:#00a26f;fill-opacity:1;stroke:#bdf3d8;stroke-width:0;stroke-linecap:round;paint-order:fill markers stroke"
       d="m 48.80371,14.988325 c 0,4.402816 -3.979657,-8.1220568 -21.421591,-7.8704526 C 12.171533,7.337289 6.5514705,18.274043 6.5514704,13.871228 6.5514707,9.4684114 15.986459,1.3292847 27.382119,1.3292846 c 11.395661,0 21.421591,9.2562234 21.421591,13.6590404 z"
       sodipodi:nodetypes="sssss" />
  </g>
</svg>
