<?xml version="1.0" encoding="UTF-8" standalone="no"?>
<!-- Created with Inkscape (http://www.inkscape.org/) -->

<svg
   width="200"
   height="200"
   viewBox="0 0 52.916666 52.916666"
   version="1.1"
   id="svg20890"
   inkscape:version="1.1.1 (3bf5ae0d25, 2021-09-20)"
   sodipodi:docname="Turtule.svg"
   xmlns:inkscape="http://www.inkscape.org/namespaces/inkscape"
   xmlns:sodipodi="http://sodipodi.sourceforge.net/DTD/sodipodi-0.dtd"
   xmlns="http://www.w3.org/2000/svg"
   xmlns:svg="http://www.w3.org/2000/svg">
  <sodipodi:namedview
     id="namedview20892"
     pagecolor="#505050"
     bordercolor="#eeeeee"
     borderopacity="1"
     inkscape:pageshadow="0"
     inkscape:pageopacity="0"
     inkscape:pagecheckerboard="0"
     inkscape:document-units="mm"
     showgrid="false"
     inkscape:snap-global="false"
     inkscape:zoom="1.3932941"
     inkscape:cx="129.19024"
     inkscape:cy="167.94732"
     inkscape:window-width="1920"
     inkscape:window-height="986"
     inkscape:window-x="-11"
     inkscape:window-y="-11"
     inkscape:window-maximized="1"
     inkscape:current-layer="layer1"
     units="px" />
  <defs
     id="defs20887" />
  <g
     inkscape:label="Layer 1"
     inkscape:groupmode="layer"
     id="layer1">
    <g
       id="g73487"
       transform="matrix(0.26206439,0,0,0.26335541,-0.4937109,0.85404424)">
      <path
         id="path23858"
         style="fill:#dfc08f;fill-opacity:1;stroke:#f7c679;stroke-width:0"
         d="m 174.53261,105.49683 c -6.60123,19.08599 -45.64504,31.03804 -75.2854,32.76045 C 79.263911,139.41852 66.398264,124.904 57.910979,92.328402 51.569217,67.987687 77.9912,62.339377 107.42016,66.955117 c 30.7167,4.817714 75.32648,14.792607 67.11245,38.541713 z"
         sodipodi:nodetypes="sssss" />
      <path
         id="path21503"
         style="fill:#e7d09c;fill-opacity:1;stroke:#f7c679;stroke-width:0"
         d="M 95.291356,69.574761 C 104.98303,67.33195 74.098426,89.316011 58.842484,91.733961 43.586543,94.151921 5.1945297,87.781451 9.4346127,78.826596 20.006526,56.499211 19.239109,53.207207 34.495048,50.789248 c 15.25594,-2.417957 18.1883,28.645718 60.796308,18.785513 z"
         sodipodi:nodetypes="sssss" />
      <path
         id="path23518"
         style="fill:#e7d09c;fill-opacity:1;stroke:#f7c679;stroke-width:0"
         d="m 174.53261,105.49683 c 9.05227,11.03884 18.87087,38.75446 11.15492,42.22752 -7.71595,3.47305 -26.24663,-14.05409 -35.2989,-25.09294 -9.05227,-11.03883 -5.19823,-11.40918 2.51772,-14.88224 7.71595,-3.47305 12.57399,-13.291178 21.62626,-2.25234 z"
         sodipodi:nodetypes="sssss" />
      <path
         id="path22516"
         style="fill:#e7d09c;fill-opacity:1;stroke:#f7c679;stroke-width:0"
         d="m 77.557133,122.20489 c 2.437433,16.88563 30.707137,31.20344 21.43435,37.33561 -9.272776,6.13219 -32.827281,-5.0797 -43.240426,-20.82594 -10.413144,-15.74625 0.05628,-35.76099 9.329064,-41.893172 9.272787,-6.132185 9.779935,6.699192 12.477012,25.383502 z"
         sodipodi:nodetypes="sssss" />
      <path
         id="path20973"
         style="fill:#00cc7b;fill-opacity:1;stroke:#f7c679;stroke-width:0"
         d="m 182.44795,99.799893 c -7.003,19.085987 -48.42313,31.038037 -79.8675,32.760447 C 81.380901,133.72158 67.732212,119.20706 58.728364,86.631475 52.000623,62.290756 80.030729,56.642446 111.25083,61.258186 c 32.58622,4.817714 79.91109,14.792607 71.19712,38.541707 z"
         sodipodi:nodetypes="sssss" />
      <path
         id="path28317"
         style="fill:#633300;fill-opacity:1;stroke:#f7c679;stroke-width:0"
         d="m 108.93389,99.251402 c -7.6377,6.268768 -9.499525,26.688158 -19.852315,25.378158 -10.3528,-1.30999 -25.263337,-38.926972 -24.026264,-48.703439 1.23707,-9.776464 29.177847,-11.900273 27.384608,-1.543147 -1.828337,10.55982 24.085051,18.637941 16.493971,24.868428 z"
         sodipodi:nodetypes="sssss" />
      <path
         id="path29982"
         style="fill:#633300;fill-opacity:1;stroke:#f7c679;stroke-width:0"
         d="m 136.73788,104.4827 c -3.14471,5.80922 -1.09268,11.87025 -8.60892,17.22286 -7.51624,5.35261 -21.69092,7.18513 -24.08817,3.9915 -2.39724,-3.19363 10.95493,-22.19292 13.16436,-18.54433 2.25268,3.71998 22.65822,-8.443773 19.53271,-2.67 z"
         sodipodi:nodetypes="sssss" />
      <path
         id="path29984"
         style="fill:#633300;fill-opacity:1;stroke:#f7c679;stroke-width:0"
         d="m 140.94005,78.627879 c 3.37925,17.679402 5.54227,10.471311 -1.75314,16.616021 -7.29542,6.14472 -24.77463,9.85489 -26.83049,6.24043 -2.05585,-3.614467 11.71465,-16.941551 13.28455,-21.191731 1.89214,-5.122585 13.92114,-8.873768 15.29908,-1.66472 z"
         sodipodi:nodetypes="sssss" />
      <path
         id="path29986"
         style="fill:#633300;fill-opacity:1;stroke:#f7c679;stroke-width:0"
         d="m 150.95119,75.294421 c 8.11342,0.631642 17.37229,1.657886 22.51591,7.513553 5.14364,5.855672 1.04689,21.106976 -5.49678,25.470916 -6.54372,4.36398 -49.88998,23.81273 -24.3216,-5.58536 11.10296,-12.765993 -0.7614,-28.026899 7.30247,-27.399109 z"
         sodipodi:nodetypes="sssss" />
      <path
         id="path30448"
         style="fill:#633300;fill-opacity:1;stroke:#f7c679;stroke-width:0"
         d="m 110.87415,89.275468 c -3.1007,-3.972221 -15.768814,-12.246222 -15.167793,-16.992493 0.601017,-4.746271 12.274323,-9.792595 17.068083,-8.57926 4.79376,1.21333 18.71499,12.647251 13.63462,11.136589 -5.1798,-1.540232 -12.45315,18.383128 -15.53491,14.435164 z"
         sodipodi:nodetypes="sssss" />
      <path
         id="path31031"
         style="fill:#2b0000;stroke:#f7c679;stroke-width:0"
         d="m 42.157289,68.553062 a 8.1656008,8.1656008 0 0 1 -8.165601,8.165601 8.1656008,8.1656008 0 0 1 -8.165601,-8.165601 8.1656008,8.1656008 0 0 1 8.165601,-8.1656 8.1656008,8.1656008 0 0 1 8.165601,8.1656 z" />
      <path
         id="path31179"
         style="fill:#ffffff;stroke:#f7c679;stroke-width:0"
         d="m 39.498721,68.363174 a 3.4181585,3.7979538 0 0 1 -3.418158,3.797954 3.4181585,3.7979538 0 0 1 -3.418159,-3.797954 3.4181585,3.7979538 0 0 1 3.418159,-3.797953 3.4181585,3.7979538 0 0 1 3.418158,3.797953 z" />
      <path
         id="path31181"
         style="fill:#ffffff;stroke:#f7c679;stroke-width:0"
         d="m 31.902812,64.185425 a 1.1393862,1.1393862 0 0 1 -1.139386,1.139386 1.1393862,1.1393862 0 0 1 -1.139386,-1.139386 1.1393862,1.1393862 0 0 1 1.139386,-1.139386 1.1393862,1.1393862 0 0 1 1.139386,1.139386 z" />
      <path
         id="path35656"
         style="fill:#dfc08f;fill-opacity:1;stroke:#f7c679;stroke-width:0"
         d="m 54.379859,81.230137 c 7.062975,11.890547 -10.143518,8.915649 -15.65027,8.781371 -11.008876,-0.268443 -28.429034,-6.608342 -28.429035,-8.915649 10e-7,-2.307307 19.181586,2.278773 30.193734,2.278773 11.012148,0 10.921956,-7.133753 13.885571,-2.144495 z"
         sodipodi:nodetypes="sssss" />
      <path
         id="path70329"
         style="fill:#dfc08f;fill-opacity:1;stroke:#f7c679;stroke-width:0"
         d="m 51.662409,123.41521 c -3.290589,-14.44979 19.830712,20.12739 24.90534,24.65658 8.858122,7.90602 17.036446,6.6437 16.210976,9.20825 -0.82547,2.56454 -8.063222,4.07228 -18.120077,-2.32528 -15.561032,-9.89898 -21.615513,-25.47642 -22.996239,-31.53955 z"
         sodipodi:nodetypes="sssss" />
    </g>
  </g>
</svg>
