<?xml version="1.0" encoding="UTF-8" standalone="no"?>
<!-- Created with Inkscape (http://www.inkscape.org/) -->

<svg
   width="200"
   height="200"
   viewBox="0 0 52.916665 52.916666"
   version="1.1"
   id="svg5"
   inkscape:version="1.1.1 (3bf5ae0d25, 2021-09-20)"
   sodipodi:docname="AddPinButton.svg"
   xmlns:inkscape="http://www.inkscape.org/namespaces/inkscape"
   xmlns:sodipodi="http://sodipodi.sourceforge.net/DTD/sodipodi-0.dtd"
   xmlns="http://www.w3.org/2000/svg"
   xmlns:svg="http://www.w3.org/2000/svg">
  <sodipodi:namedview
     id="namedview7"
     pagecolor="#505050"
     bordercolor="#eeeeee"
     borderopacity="1"
     inkscape:pageshadow="0"
     inkscape:pageopacity="0"
     inkscape:pagecheckerboard="0"
     inkscape:document-units="mm"
     showgrid="false"
     scale-x="1"
     units="px"
     inkscape:zoom="2.7865881"
     inkscape:cx="110.88829"
     inkscape:cy="88.997724"
     inkscape:window-width="1920"
     inkscape:window-height="986"
     inkscape:window-x="-11"
     inkscape:window-y="-11"
     inkscape:window-maximized="1"
     inkscape:current-layer="layer1">
    <inkscape:grid
       type="xygrid"
       id="grid928" />
  </sodipodi:namedview>
  <defs
     id="defs2" />
  <g
     inkscape:label="Layer 1"
     inkscape:groupmode="layer"
     id="layer1">
    <g
       id="g1765">
      <path
         id="path846"
         style="fill:#155041;stroke:#424242;stroke-width:0;paint-order:stroke markers fill"
         d="M 51.573668,26.369747 A 25.135416,25.135416 0 0 1 26.438251,51.505163 25.135416,25.135416 0 0 1 1.3028355,26.369747 25.135416,25.135416 0 0 1 26.438251,1.2343311 25.135416,25.135416 0 0 1 51.573668,26.369747 Z" />
      <path
         id="circle1678"
         style="fill:#0f3128;stroke:#424242;stroke-width:0;paint-order:stroke markers fill"
         d="M 49.010046,26.227324 A 22.381899,21.764732 0 0 1 26.628147,47.992056 22.381899,21.764732 0 0 1 4.2462482,26.227324 22.381899,21.764732 0 0 1 26.628147,4.4625912 22.381899,21.764732 0 0 1 49.010046,26.227324 Z" />
      <path
         id="rect1401"
         style="fill:#42ffc7;stroke:#424242;stroke-width:0;paint-order:stroke markers fill"
         d="m 26.458334,5.2916665 c 2.931583,0 5.291666,2.3600831 5.291666,5.2916665 v 30.427082 c 0,2.931583 -2.360083,5.291666 -5.291666,5.291666 -2.931583,0 -5.291666,-2.360083 -5.291666,-5.291666 V 10.583333 c 0,-2.9315834 2.360083,-5.2916665 5.291666,-5.2916665 z" />
      <path
         id="rect1403"
         style="fill:#3bffc7;stroke:#424242;stroke-width:0;paint-order:stroke markers fill"
         d="m 10.583331,21.166666 h 31.750002 c 2.931584,0 5.291667,2.360084 5.291667,5.291667 0,2.931584 -2.360083,5.291667 -5.291667,5.291667 H 10.583331 c -2.9315834,0 -5.2916669,-2.360083 -5.2916669,-5.291667 0,-2.931583 2.3600835,-5.291667 5.2916669,-5.291667 z" />
    </g>
  </g>
</svg>
